<svg width="24" height="25" viewBox="0 0 24 25" fill="none" xmlns="http://www.w3.org/2000/svg">
<path d="M13.0286 2.67994C13.7583 2.67714 14.488 2.68448 15.2176 2.70194L15.4116 2.70894C15.6356 2.71694 15.8566 2.72694 16.1236 2.73894C17.1876 2.78894 17.9136 2.95694 18.5506 3.20394C19.2106 3.45794 19.7666 3.80194 20.3226 4.35794C20.831 4.85755 21.2244 5.46189 21.4756 6.12894C21.7226 6.76594 21.8906 7.49294 21.9406 8.55694C21.9526 8.82294 21.9626 9.04494 21.9706 9.26894L21.9766 9.46294C21.9943 10.1921 22.002 10.9215 21.9996 11.6509L22.0006 12.3969V13.7069C22.003 14.4367 21.9954 15.1664 21.9776 15.8959L21.9716 16.0899C21.9636 16.3139 21.9536 16.5349 21.9416 16.8019C21.8916 17.8659 21.7216 18.5919 21.4756 19.2289C21.2252 19.8967 20.8317 20.5015 20.3226 21.0009C19.8225 21.5093 19.2179 21.9027 18.5506 22.1539C17.9136 22.4009 17.1876 22.5689 16.1236 22.6189C15.8566 22.6309 15.6356 22.6409 15.4116 22.6489L15.2176 22.6549C14.4881 22.6727 13.7583 22.6804 13.0286 22.6779L12.2826 22.6789H10.9736C10.2438 22.6814 9.5141 22.6737 8.78458 22.6559L8.59058 22.6499C8.35319 22.6413 8.11585 22.6313 7.87858 22.6199C6.81458 22.5699 6.08858 22.3999 5.45058 22.1539C4.78326 21.9033 4.17881 21.5098 3.67958 21.0009C3.17062 20.5012 2.7768 19.8965 2.52558 19.2289C2.27858 18.5919 2.11058 17.8659 2.06058 16.8019C2.04944 16.5647 2.03944 16.3273 2.03058 16.0899L2.02558 15.8959C2.00714 15.1664 1.99881 14.4367 2.00058 13.7069V11.6509C1.99779 10.9215 2.00512 10.1921 2.02258 9.46294L2.02958 9.26894C2.03758 9.04494 2.04758 8.82294 2.05958 8.55694C2.10958 7.49194 2.27758 6.76694 2.52458 6.12894C2.77595 5.46156 3.17054 4.85739 3.68058 4.35894C4.17947 3.84969 4.78354 3.45551 5.45058 3.20394C6.08858 2.95694 6.81358 2.78894 7.87858 2.73894L8.59058 2.70894L8.78458 2.70394C9.51376 2.68551 10.2432 2.67718 10.9726 2.67894L13.0286 2.67994ZM12.0006 7.67994C11.3381 7.67057 10.6803 7.79297 10.0656 8.04001C9.45077 8.28705 8.89122 8.65382 8.41942 9.119C7.94762 9.58417 7.57298 10.1385 7.31726 10.7497C7.06155 11.3609 6.92987 12.0169 6.92987 12.6794C6.92987 13.342 7.06155 13.998 7.31726 14.6092C7.57298 15.2204 7.94762 15.7747 8.41942 16.2399C8.89122 16.7051 9.45077 17.0718 10.0656 17.3189C10.6803 17.5659 11.3381 17.6883 12.0006 17.6789C13.3267 17.6789 14.5984 17.1522 15.5361 16.2145C16.4738 15.2768 17.0006 14.005 17.0006 12.6789C17.0006 11.3529 16.4738 10.0811 15.5361 9.14341C14.5984 8.20573 13.3267 7.67994 12.0006 7.67994ZM12.0006 9.67994C12.3991 9.6726 12.7951 9.74474 13.1654 9.89215C13.5357 10.0396 13.8729 10.2593 14.1574 10.5385C14.4418 10.8177 14.6678 11.1508 14.822 11.5183C14.9763 11.8858 15.0558 12.2804 15.0558 12.6789C15.0559 13.0775 14.9766 13.4721 14.8224 13.8397C14.6683 14.2072 14.4424 14.5404 14.1581 14.8197C13.8737 15.099 13.5366 15.3188 13.1663 15.4663C12.796 15.6139 12.4001 15.6862 12.0016 15.6789C11.2059 15.6789 10.4429 15.3629 9.88026 14.8003C9.31765 14.2377 9.00158 13.4746 9.00158 12.6789C9.00158 11.8833 9.31765 11.1202 9.88026 10.5576C10.4429 9.99501 11.2059 9.67894 12.0016 9.67894L12.0006 9.67994ZM17.2506 6.17994C16.928 6.19285 16.6229 6.33009 16.3992 6.56291C16.1755 6.79573 16.0506 7.10608 16.0506 7.42894C16.0506 7.75181 16.1755 8.06215 16.3992 8.29497C16.6229 8.52779 16.928 8.66503 17.2506 8.67794C17.5821 8.67794 17.9 8.54625 18.1345 8.31182C18.3689 8.0774 18.5006 7.75946 18.5006 7.42794C18.5006 7.09642 18.3689 6.77848 18.1345 6.54406C17.9 6.30964 17.5821 6.17794 17.2506 6.17794V6.17994Z" fill="#FFFDFA"/>
</svg>
