<svg width="22" height="21" viewBox="0 0 22 21" fill="none" xmlns="http://www.w3.org/2000/svg">
<path fill-rule="evenodd" clip-rule="evenodd" d="M4.56924 20.3547C8.84499 20.8108 13.1571 20.8108 17.4329 20.3547C18.2631 20.2658 19.0377 19.8951 19.6277 19.3043C20.2176 18.7135 20.5873 17.9383 20.675 17.108C21.1311 12.8323 21.1311 8.52012 20.675 4.24437C20.5861 3.41419 20.2154 2.63954 19.6246 2.04957C19.0338 1.4596 18.2586 1.08996 17.4283 1.00228C13.1526 0.546114 8.84043 0.546114 4.56469 1.00228C3.7345 1.09113 2.95985 1.46185 2.36988 2.05265C1.77991 2.64345 1.41028 3.41862 1.32259 4.24893C0.866427 8.52467 0.866427 12.8368 1.32259 17.1126C1.41144 17.9428 1.78217 18.7174 2.37296 19.3074C2.96376 19.8973 3.73893 20.267 4.56924 20.3547ZM6.66228 15.7696C7.41162 16.519 8.42794 16.94 9.48766 16.94C10.5465 16.9382 11.5614 16.5165 12.3098 15.7674C13.0582 15.0184 13.479 14.0031 13.4799 12.9443V8.81879C14.0981 9.19217 14.8068 9.38902 15.529 9.38798H16.5114V7.44136H15.5358C14.9924 7.44136 14.4712 7.22548 14.0869 6.8412C13.7027 6.45692 13.4868 5.93573 13.4868 5.39228V4.41784H11.5367V12.9477C11.5367 13.3529 11.4166 13.7491 11.1914 14.0861C10.9663 14.4231 10.6462 14.6857 10.2718 14.8408C9.89739 14.9959 9.48539 15.0364 9.08791 14.9574C8.69043 14.8783 8.32532 14.6832 8.03875 14.3966C7.75218 14.11 7.55702 13.7449 7.47796 13.3474C7.3989 12.95 7.43948 12.538 7.59456 12.1635C7.74965 11.7891 8.01229 11.4691 8.34926 11.2439C8.68623 11.0188 9.08239 10.8986 9.48766 10.8986H10.4633V8.94857H9.48766C8.42794 8.94857 7.41162 9.36954 6.66228 10.1189C5.91294 10.8682 5.49197 11.8845 5.49197 12.9443C5.49197 14.004 5.91294 15.0203 6.66228 15.7696Z" fill="#FFFDFA"/>
</svg>
