<svg width="24" height="24" viewBox="0 0 24 24" fill="none" xmlns="http://www.w3.org/2000/svg">
<path d="M12.0017 20.3999L11.6177 19.9679C11.3777 19.7279 5.76172 13.1039 5.76172 9.11988C5.76172 5.66388 8.54572 2.87988 12.0017 2.87988C15.4577 2.87988 18.2417 5.66388 18.2417 9.11988C18.2417 13.1039 12.6257 19.7279 12.3857 20.0159L12.0017 20.3999ZM12.0017 3.83988C9.07372 3.83988 6.72172 6.19188 6.72172 9.11988C6.72172 12.1919 10.7537 17.3759 12.0017 18.9119C13.2497 17.3759 17.2817 12.1919 17.2817 9.11988C17.2817 6.19188 14.9297 3.83988 12.0017 3.83988Z" fill="#010101"/>
<path d="M12.0016 11.5202C10.6576 11.5202 9.60156 10.4642 9.60156 9.12021C9.60156 7.77621 10.6576 6.72021 12.0016 6.72021C13.3456 6.72021 14.4016 7.77621 14.4016 9.12021C14.4016 10.4642 13.3456 11.5202 12.0016 11.5202ZM12.0016 7.68021C11.1856 7.68021 10.5616 8.30421 10.5616 9.12021C10.5616 9.93621 11.1856 10.5602 12.0016 10.5602C12.8176 10.5602 13.4416 9.93621 13.4416 9.12021C13.4416 8.30421 12.8176 7.68021 12.0016 7.68021Z" fill="#010101"/>
</svg>
