<!-- Generated by IcoMoon.io -->
<svg version="1.1" xmlns="http://www.w3.org/2000/svg" width="24" height="24" viewBox="0 0 32 32">
<path fill="none" stroke-linejoin="miter" stroke-linecap="round" stroke-miterlimit="4" stroke-width="1.28" stroke="#000" d="M20.48 10.88c0 2.474-2.006 4.48-4.48 4.48s-4.48-2.006-4.48-4.48c0-2.474 2.006-4.48 4.48-4.48s4.48 2.006 4.48 4.48z"></path>
<path fill="none" stroke-linejoin="miter" stroke-linecap="round" stroke-miterlimit="4" stroke-width="1.28" stroke="#000" d="M6.847 22.333c0.819-3.001 3.924-4.413 7.035-4.413h4.237c3.111 0 6.216 1.412 7.035 4.413 0.168 0.615 0.302 1.281 0.378 1.989 0.076 0.703-0.504 1.278-1.211 1.278h-16.64c-0.707 0-1.287-0.575-1.211-1.278 0.076-0.707 0.21-1.373 0.378-1.989z"></path>
</svg>
