<svg viewBox="0 0 24 24" fill="none" xmlns="http://www.w3.org/2000/svg">
<path d="M22.3199 13.4509L21.6984 10.9648C21.8683 10.9287 21.9958 10.778 21.9958 10.5974V10.1966C21.9958 9.32628 21.2878 8.61828 20.4175 8.61828H17.5867V7.79154C17.5867 7.36329 17.2383 7.01492 16.81 7.01492H11.5462L14.745 5.73542C14.8371 5.69812 14.9107 5.62584 14.9497 5.5344C14.9887 5.44295 14.9898 5.3398 14.9529 5.24751C14.916 5.15522 14.844 5.08131 14.7527 5.04197C14.6615 5.00263 14.5583 5.00105 14.4659 5.03759L11.8468 6.0852C12.6449 5.57314 13.4345 5.00956 13.7351 4.61543C14.3203 3.84814 14.1721 2.74779 13.4048 2.16256C12.6375 1.57728 11.5372 1.72554 10.9519 2.49284C10.5243 3.05356 9.96014 4.62907 9.59498 5.73931C9.22983 4.62917 8.66564 3.05356 8.23805 2.49284C7.65286 1.72554 6.55247 1.57737 5.78517 2.16256C5.01787 2.74775 4.8697 3.84809 5.45489 4.61543C5.7555 5.0096 6.54506 5.57314 7.3432 6.0852L4.72411 5.03759C4.67829 5.01924 4.62931 5.0101 4.57996 5.0107C4.5306 5.01129 4.48185 5.0216 4.43649 5.04104C4.39112 5.06048 4.35003 5.08867 4.31557 5.124C4.2811 5.15933 4.25394 5.2011 4.23562 5.24693C4.21729 5.29275 4.20816 5.34173 4.20876 5.39108C4.20936 5.44043 4.21967 5.48918 4.23911 5.53454C4.25855 5.5799 4.28674 5.62099 4.32206 5.65545C4.35738 5.68992 4.39914 5.71709 4.44497 5.73542L7.64372 7.01492H2.37994C1.95169 7.01492 1.60331 7.36329 1.60331 7.79154V14.6058C1.60331 14.7054 1.64291 14.801 1.71338 14.8715C1.78386 14.942 1.87944 14.9816 1.97911 14.9816C2.07878 14.9816 2.17436 14.942 2.24484 14.8715C2.31531 14.801 2.35491 14.7054 2.35491 14.6058V7.79154C2.35491 7.77771 2.36611 7.76651 2.37994 7.76651H16.81C16.8238 7.76651 16.835 7.77771 16.835 7.79154V14.6059C16.835 14.7055 16.8746 14.8011 16.9451 14.8716C17.0156 14.9421 17.1111 14.9817 17.2108 14.9817C17.3105 14.9817 17.4061 14.9421 17.4765 14.8716C17.547 14.8011 17.5866 14.7055 17.5866 14.6059V14.1799H22.0194L22.0206 14.1799L22.0218 14.1799C22.5672 14.1803 23.0303 14.5384 23.1893 15.0317H22.0208C21.9212 15.0317 21.8256 15.0713 21.7551 15.1417C21.6846 15.2122 21.645 15.3078 21.645 15.4075V16.2091C21.645 16.8584 22.1732 17.3866 22.8225 17.3866H23.2484V19.04H22.2658C21.943 18.108 21.057 17.4366 20.0167 17.4366C18.9763 17.4366 18.0902 18.108 17.7675 19.04H17.5866V16.2091C17.5866 16.1094 17.547 16.0138 17.4765 15.9433C17.406 15.8729 17.3104 15.8333 17.2108 15.8333C17.1111 15.8333 17.0155 15.8729 16.945 15.9433C16.8746 16.0138 16.835 16.1094 16.835 16.2091V19.0399H9.0383C8.71552 18.108 7.82953 17.4366 6.78914 17.4366C5.74875 17.4366 4.86272 18.1079 4.53998 19.0399H2.37994C2.3733 19.0399 2.36693 19.0373 2.36224 19.0326C2.35754 19.0279 2.35491 19.0216 2.35491 19.0149V18.1882H3.9833C4.08296 18.1882 4.17855 18.1486 4.24902 18.0781C4.3195 18.0076 4.35909 17.9121 4.35909 17.8124C4.35909 17.7127 4.3195 17.6171 4.24902 17.5467C4.17855 17.4762 4.08296 17.4366 3.9833 17.4366H0.375797C0.276129 17.4366 0.180544 17.4762 0.110068 17.5467C0.0395928 17.6171 0 17.7127 0 17.8124C0 17.9121 0.0395928 18.0076 0.110068 18.0781C0.180544 18.1486 0.276129 18.1882 0.375797 18.1882H1.60336V19.0149C1.60336 19.4432 1.95173 19.7915 2.37998 19.7915H4.40986C4.40977 19.7999 4.4092 19.8082 4.4092 19.8166C4.4092 21.1288 5.47687 22.1965 6.78914 22.1965C8.10141 22.1965 9.16908 21.1288 9.16908 19.8166C9.16908 19.8081 9.16852 19.7999 9.16842 19.7915H17.6373C17.6372 19.7999 17.6367 19.8082 17.6367 19.8166C17.6367 21.1288 18.7043 22.1965 20.0166 22.1965C21.3289 22.1965 22.3965 21.1288 22.3965 19.8166C22.3965 19.8081 22.396 19.7999 22.3959 19.7915H23.6242C23.7238 19.7915 23.8194 19.7519 23.8899 19.6815C23.9604 19.611 24 19.5154 24 19.4157V15.4074C24 14.4177 23.2698 13.5954 22.3199 13.4509ZM8.10469 5.67528C6.62236 4.75414 6.18267 4.33034 6.0525 4.15962C5.71861 3.72185 5.80317 3.09406 6.24098 2.76017C6.41452 2.62753 6.62693 2.55579 6.84534 2.55603C7.14637 2.55603 7.44422 2.69131 7.64048 2.94865C8.004 3.42528 8.5733 5.02948 8.94914 6.18546C8.66564 6.01876 8.38413 5.84869 8.10469 5.67528ZM10.2409 6.18542C10.6168 5.02948 11.1861 3.42532 11.5495 2.94861C11.8834 2.51084 12.5112 2.42632 12.949 2.76017C13.3868 3.09406 13.4713 3.72185 13.1375 4.15962C13.0073 4.33029 12.5676 4.75414 11.0854 5.67523C10.8059 5.84865 10.5244 6.01872 10.2409 6.18542ZM17.5867 9.36978H20.4175C20.8734 9.36978 21.2443 9.74065 21.2443 10.1965V10.2215H17.5867V9.36978ZM17.5867 13.4283V10.9731H20.9258L21.5396 13.4283H17.5867ZM6.78914 21.445C5.89125 21.445 5.16075 20.7145 5.16075 19.8166C5.16075 18.9187 5.89125 18.1882 6.78914 18.1882C7.68703 18.1882 8.41753 18.9187 8.41753 19.8166C8.41753 20.7145 7.68703 21.445 6.78914 21.445ZM20.0167 21.445C19.1188 21.445 18.3883 20.7145 18.3883 19.8166C18.3883 18.9187 19.1188 18.1882 20.0167 18.1882C20.9146 18.1882 21.6451 18.9187 21.6451 19.8166C21.6451 20.7145 20.9146 21.445 20.0167 21.445ZM23.2485 16.6349H22.8225C22.5877 16.6349 22.3966 16.4439 22.3966 16.209V15.7831H23.2484V16.6349H23.2485Z" fill="#010101"/>
<path d="M6.79022 19.0411C6.36197 19.0411 6.01359 19.3894 6.01359 19.8177C6.01359 20.2459 6.36197 20.5943 6.79022 20.5943C7.21847 20.5943 7.56684 20.2459 7.56684 19.8177C7.56684 19.3894 7.21847 19.0411 6.79022 19.0411ZM20.0178 19.0411C19.5895 19.0411 19.2412 19.3894 19.2412 19.8177C19.2412 20.2459 19.5895 20.5943 20.0178 20.5943C20.446 20.5943 20.7944 20.2459 20.7944 19.8177C20.7944 19.3894 20.446 19.0411 20.0178 19.0411ZM15.6086 17.4377H9.99689C9.89722 17.4377 9.80164 17.4773 9.73116 17.5478C9.66069 17.6182 9.62109 17.7138 9.62109 17.8135C9.62109 17.9132 9.66069 18.0088 9.73116 18.0792C9.80164 18.1497 9.89722 18.1893 9.99689 18.1893H15.6086C15.7082 18.1893 15.8038 18.1497 15.8743 18.0792C15.9448 18.0088 15.9844 17.9132 15.9844 17.8135C15.9844 17.7138 15.9448 17.6182 15.8743 17.5478C15.8038 17.4773 15.7082 17.4377 15.6086 17.4377ZM5.98856 15.8344H1.17853C1.07886 15.8344 0.983278 15.874 0.912803 15.9445C0.842327 16.0149 0.802734 16.1105 0.802734 16.2102C0.802734 16.3099 0.842327 16.4054 0.912803 16.4759C0.983278 16.5464 1.07886 16.586 1.17853 16.586H5.98856C6.08823 16.586 6.18382 16.5464 6.25429 16.4759C6.32477 16.4054 6.36436 16.3099 6.36436 16.2102C6.36436 16.1105 6.32477 16.0149 6.25429 15.9445C6.18382 15.874 6.08823 15.8344 5.98856 15.8344ZM5.98856 10.2227H4.3852C4.28554 10.2227 4.18995 10.2622 4.11947 10.3327C4.049 10.4032 4.00941 10.4988 4.00941 10.5985V13.8051C4.00941 13.9048 4.049 14.0004 4.11947 14.0709C4.18995 14.1413 4.28554 14.1809 4.3852 14.1809C4.48487 14.1809 4.58046 14.1413 4.65093 14.0709C4.72141 14.0004 4.761 13.9048 4.761 13.8051V12.5776H5.58773C5.6874 12.5776 5.78299 12.538 5.85346 12.4675C5.92394 12.397 5.96353 12.3014 5.96353 12.2018C5.96353 12.1021 5.92394 12.0065 5.85346 11.936C5.78299 11.8656 5.6874 11.826 5.58773 11.826H4.761V10.9742H5.98856C6.08823 10.9742 6.18382 10.9347 6.25429 10.8642C6.32477 10.7937 6.36436 10.6981 6.36436 10.5985C6.36436 10.4988 6.32477 10.4032 6.25429 10.3327C6.18382 10.2622 6.08823 10.2227 5.98856 10.2227ZM8.94586 12.7538C9.32194 12.5074 9.57103 12.0827 9.57103 11.6005C9.57103 10.8407 8.95294 10.2227 8.19314 10.2227H7.19105C7.09138 10.2227 6.99579 10.2622 6.92532 10.3327C6.85484 10.4032 6.81525 10.4988 6.81525 10.5985V13.8051C6.81525 13.9048 6.85484 14.0004 6.92532 14.0709C6.99579 14.1413 7.09138 14.1809 7.19105 14.1809C7.29071 14.1809 7.3863 14.1413 7.45677 14.0709C7.52725 14.0004 7.56684 13.9048 7.56684 13.8051V12.9784H8.19244L8.88253 14.0135C8.91684 14.0651 8.96338 14.1073 9.01799 14.1366C9.0726 14.1658 9.13359 14.181 9.19551 14.1809C9.26961 14.181 9.34204 14.159 9.40359 14.1177C9.44466 14.0904 9.47994 14.0552 9.5074 14.0142C9.53487 13.9732 9.55399 13.9272 9.56366 13.8788C9.57334 13.8304 9.57339 13.7806 9.5638 13.7322C9.55422 13.6838 9.53518 13.6377 9.5078 13.5967L8.94586 12.7538ZM8.19314 12.2268H7.56684V10.9742H8.19314C8.53852 10.9742 8.81944 11.2552 8.81944 11.6005C8.81944 11.9459 8.53852 12.2268 8.19314 12.2268ZM12.0011 13.4294H10.7735V12.5763C10.7818 12.5769 10.7901 12.5776 10.7985 12.5776H11.6002C11.6999 12.5776 11.7955 12.538 11.8659 12.4675C11.9364 12.3971 11.976 12.3015 11.976 12.2018C11.976 12.1021 11.9364 12.0066 11.8659 11.9361C11.7955 11.8656 11.6999 11.826 11.6002 11.826H10.7985C10.7901 11.826 10.7818 11.8267 10.7735 11.8273V10.9742H12.0011C12.1007 10.9742 12.1963 10.9347 12.2668 10.8642C12.3373 10.7937 12.3769 10.6981 12.3769 10.5985C12.3769 10.4988 12.3373 10.4032 12.2668 10.3327C12.1963 10.2622 12.1007 10.2227 12.0011 10.2227H10.3977C10.2981 10.2227 10.2025 10.2622 10.132 10.3327C10.0615 10.4032 10.0219 10.4988 10.0219 10.5985V13.8051C10.0219 13.9048 10.0615 14.0004 10.132 14.0709C10.2025 14.1413 10.2981 14.1809 10.3977 14.1809H12.0011C12.1 14.1798 12.1945 14.1397 12.2641 14.0694C12.3337 13.999 12.3727 13.9041 12.3727 13.8051C12.3727 13.7062 12.3337 13.6113 12.2641 13.5409C12.1945 13.4706 12.1 13.4305 12.0011 13.4294ZM14.8069 13.4294H13.5794V12.5776H14.0053C14.1049 12.5776 14.2005 12.538 14.271 12.4675C14.3415 12.3971 14.3811 12.3015 14.3811 12.2018C14.3811 12.1021 14.3415 12.0066 14.271 11.9361C14.2005 11.8656 14.1049 11.826 14.0053 11.826H13.5794V10.9742H14.8069C14.9066 10.9742 15.0022 10.9347 15.0727 10.8642C15.1431 10.7937 15.1827 10.6981 15.1827 10.5985C15.1827 10.4988 15.1431 10.4032 15.0727 10.3327C15.0022 10.2622 14.9066 10.2227 14.8069 10.2227H13.2036C13.1039 10.2227 13.0083 10.2622 12.9378 10.3327C12.8674 10.4032 12.8278 10.4988 12.8278 10.5985V13.8051C12.8278 13.9048 12.8674 14.0004 12.9378 14.0709C13.0083 14.1413 13.1039 14.1809 13.2036 14.1809H14.8069C14.9059 14.1798 15.0004 14.1397 15.0699 14.0694C15.1395 13.999 15.1785 13.9041 15.1785 13.8051C15.1785 13.7062 15.1395 13.6113 15.0699 13.5409C15.0004 13.4706 14.9059 13.4305 14.8069 13.4294Z" fill="#010101"/>
</svg>
