<svg viewBox="0 0 24 24" fill="none" xmlns="http://www.w3.org/2000/svg">
<g clip-path="url(#clip0_3302_9994)">
<path d="M19.4079 17.3084V15.4394L19.4079 15.4316C19.3865 14.1315 18.8973 13.1696 17.9124 12.4909C17.0925 11.9258 16.0605 11.6478 15.0624 11.3789C14.778 11.3023 14.5048 11.2287 14.2421 11.1502V10.1582C15.3114 9.43561 16.0159 8.21189 16.0159 6.82664V6.32452C16.0711 6.28319 16.1233 6.23805 16.1722 6.18942C16.6978 5.66386 16.7433 4.83755 16.3095 4.25944V2.37942C16.3095 1.06739 15.2421 0 13.9301 0H10.0676C8.75559 0 7.6882 1.06739 7.6882 2.37942V4.25948C7.25437 4.83759 7.29998 5.66391 7.82606 6.19003C7.8748 6.23846 7.92685 6.28344 7.98183 6.32466V6.82664C7.98183 8.21166 8.68627 9.43519 9.75563 10.1579V11.1502C9.49289 11.2287 9.21961 11.3023 8.93527 11.3789C7.93725 11.6478 6.90525 11.9258 6.08527 12.4909C5.10033 13.1696 4.61119 14.1315 4.58981 15.4316L4.58977 15.4394V17.3084C4.37147 17.5288 4.23633 17.8318 4.23633 18.1659V19.4999C4.23633 20.1723 4.78336 20.7194 5.45578 20.7194H6.62367C6.68517 20.7194 6.74597 20.7162 6.80597 20.7105V22.8948C6.80597 23.5043 7.30116 24 7.90983 24H15.2269C15.4858 24 15.6956 23.7902 15.6956 23.5313C15.6956 23.2724 15.4858 23.0625 15.2269 23.0625H7.90983C7.81964 23.0625 7.74347 22.9858 7.74347 22.8948V20.35C8.20819 20.0061 8.51011 19.4542 8.51011 18.8329C8.51011 18.2117 8.20814 17.6598 7.74347 17.3159V15.9057C7.74347 15.8155 7.81964 15.7394 7.90983 15.7394H10.0971V18.5924C10.0971 18.6774 10.1203 18.7609 10.164 18.8338C10.2078 18.9067 10.2706 18.9663 10.3457 19.0062C10.4208 19.0461 10.5053 19.0649 10.5902 19.0605C10.6751 19.0561 10.7572 19.0286 10.8278 18.9811L11.9993 18.1918L13.1697 18.981C13.2402 19.0286 13.3223 19.0561 13.4073 19.0606C13.4922 19.0651 13.5768 19.0463 13.6519 19.0064C13.727 18.9664 13.7898 18.9068 13.8336 18.8339C13.8774 18.761 13.9005 18.6775 13.9005 18.5925V15.7394H16.0878C16.1787 15.7394 16.2555 15.8156 16.2555 15.9058V17.315C15.79 17.6588 15.4875 18.2112 15.4875 18.833C15.4875 19.4548 15.79 20.0071 16.2555 20.351V22.8949C16.2555 22.9858 16.1787 23.0626 16.0878 23.0626H14.1041C13.8452 23.0626 13.6353 23.2725 13.6353 23.5313C13.6353 23.7902 13.8452 24.0001 14.1041 24.0001H16.0878C16.6972 24.0001 17.193 23.5043 17.193 22.8949V20.7106C17.2531 20.7165 17.3135 20.7194 17.3739 20.7195H18.5418C19.2143 20.7195 19.7613 20.1725 19.7613 19.5V18.166C19.7614 17.8319 19.6262 17.5288 19.4079 17.3084ZM8.6257 2.37942C8.6257 1.58433 9.27253 0.9375 10.0676 0.9375H13.9301C14.7251 0.9375 15.372 1.58433 15.372 2.37942V3.42942C14.3895 2.74233 13.2227 2.37206 11.9988 2.37206C10.775 2.37206 9.60811 2.74228 8.6257 3.42942V2.37942ZM8.48841 5.52656C8.27812 5.31623 8.27813 4.97409 8.48836 4.76377C9.42605 3.82608 10.6728 3.30961 11.9988 3.30961C13.3248 3.30961 14.5715 3.82603 15.5092 4.76372C15.7195 4.97405 15.7195 5.31628 15.5099 5.526C15.2996 5.73548 14.9576 5.73553 14.7479 5.52656C14.0135 4.79217 13.0375 4.38773 11.9996 4.38773C10.9617 4.38773 9.98564 4.79217 9.25181 5.526C9.04116 5.73591 8.6985 5.73591 8.48841 5.52656ZM8.91933 6.82664V6.61898C9.28073 6.60694 9.63863 6.46402 9.91411 6.18947C10.4714 5.63217 11.212 5.32523 11.9995 5.32523C12.787 5.32523 13.5276 5.63212 14.0855 6.19003C14.3603 6.46392 14.7174 6.60656 15.0783 6.6187V6.82669C15.0783 8.52516 13.6972 9.90694 11.9995 9.90694C10.3011 9.90689 8.91933 8.52511 8.91933 6.82664ZM13.3045 10.6255V11.4945C13.3045 12.2141 12.7191 12.7995 11.9995 12.7995C11.2792 12.7995 10.6931 12.2141 10.6931 11.4945V10.6252C11.1134 10.7704 11.5549 10.8445 11.9995 10.8444C12.4436 10.8444 12.8847 10.7705 13.3045 10.6255ZM5.45578 19.7819C5.38102 19.7818 5.30935 19.7521 5.25649 19.6992C5.20363 19.6463 5.1739 19.5747 5.17383 19.4999V18.1659C5.1739 18.0911 5.20363 18.0195 5.25649 17.9666C5.30935 17.9137 5.38103 17.884 5.45578 17.8839H6.62367C7.14694 17.8839 7.57266 18.3097 7.57266 18.8329C7.57266 19.3562 7.14694 19.7819 6.62367 19.7819H5.45578ZM12.963 17.7109L12.2616 17.2379C12.1842 17.1856 12.0929 17.1577 11.9996 17.1577C11.9062 17.1577 11.815 17.1856 11.7375 17.2378L11.0346 17.7114V15.7394H12.963V17.7109ZM16.0878 14.8019H7.90983C7.30116 14.8019 6.80597 15.297 6.80597 15.9057V16.9554C6.74538 16.9495 6.68455 16.9465 6.62367 16.9464H5.52722V15.4434C5.54428 14.4565 5.89069 13.7635 6.6172 13.2629C7.30463 12.7892 8.25755 12.5324 9.17911 12.2841C9.39759 12.2252 9.61983 12.165 9.83991 12.1017C10.1056 13.044 10.9728 13.737 11.9994 13.737C13.0255 13.737 13.8922 13.044 14.1577 12.1018C14.3777 12.165 14.6 12.2252 14.8185 12.2841C15.74 12.5324 16.693 12.7891 17.3804 13.2629C18.1069 13.7635 18.4533 14.4564 18.4703 15.4434V16.9464H17.374C17.3129 16.9464 17.2526 16.9496 17.193 16.9552V15.9057C17.193 15.297 16.6973 14.8019 16.0878 14.8019ZM18.8239 19.5C18.8238 19.5747 18.7941 19.6464 18.7412 19.6993C18.6884 19.7521 18.6167 19.7819 18.5419 19.782H17.374C17.2223 19.782 17.0794 19.7453 16.9522 19.6818C16.941 19.6756 16.9295 19.6699 16.9178 19.6646C16.6244 19.503 16.425 19.1909 16.425 18.833C16.425 18.3097 16.8508 17.884 17.374 17.884H18.5419C18.6166 17.8841 18.6883 17.9138 18.7412 17.9667C18.794 18.0195 18.8238 18.0912 18.8238 18.1659L18.8239 19.5Z" fill="#010101"/>
</g>
<defs>
<clipPath id="clip0_3302_9994">
<rect width="24" height="24" fill="white"/>
</clipPath>
</defs>
</svg>
