<svg viewBox="0 0 24 24" fill="none" xmlns="http://www.w3.org/2000/svg">
<path d="M19.0781 9.14062C21.4081 9.14062 23.2969 7.25183 23.2969 4.92188C23.2969 2.59192 21.4081 0.703125 19.0781 0.703125C16.7482 0.703125 14.8594 2.59192 14.8594 4.92188C14.8594 7.25183 16.7482 9.14062 19.0781 9.14062Z" stroke="#010101" stroke-width="0.7" stroke-miterlimit="10" stroke-linecap="round" stroke-linejoin="round"/>
<path d="M19.0781 3.51562V4.92188H20.0156M23.2969 19.5469H9.23438V20.9531C9.23438 22.2475 10.2837 23.2969 11.5781 23.2969H20.9531C22.2475 23.2969 23.2969 22.2475 23.2969 20.9531V19.5469ZM20.9531 12.9844H11.5781C10.2837 12.9844 9.23438 14.0337 9.23438 15.3281V16.7344H23.2969V15.3281C23.2969 14.0337 22.2475 12.9844 20.9531 12.9844Z" stroke="#010101" stroke-width="0.7" stroke-miterlimit="10" stroke-linecap="round" stroke-linejoin="round"/>
<path d="M11.4841 12.9868L11.9531 7.82812H0.703125L2.08861 23.0684V23.0684C2.10037 23.1978 2.20886 23.2969 2.33879 23.2969H10.5469L10.5676 23.0684M0.958828 10.6406H11.6974" stroke="#010101" stroke-width="0.7" stroke-miterlimit="10" stroke-linecap="round" stroke-linejoin="round"/>
<path d="M21.4219 16.7344H11.1094C10.3327 16.7344 9.70312 17.364 9.70312 18.1406C9.70312 18.9173 10.3327 19.5469 11.1094 19.5469H21.4219C22.1985 19.5469 22.8281 18.9173 22.8281 18.1406C22.8281 17.364 22.1985 16.7344 21.4219 16.7344Z" stroke="#010101" stroke-width="0.7" stroke-miterlimit="10" stroke-linecap="round" stroke-linejoin="round"/>
</svg>
