<svg viewBox="0 0 24 22" fill="none" xmlns="http://www.w3.org/2000/svg">
<path d="M23.9982 21.3608L22.7982 8.56527C22.792 8.49883 22.7692 8.43501 22.732 8.37961C22.6949 8.32421 22.6444 8.27899 22.5853 8.24806L17.9853 5.84417C17.9768 5.83972 17.9669 5.84066 17.9581 5.83686C17.9319 5.82552 17.9041 5.82017 17.8752 5.8146C17.8475 5.80916 17.8212 5.80283 17.7931 5.8033C17.7868 5.80339 17.7813 5.80044 17.7749 5.80081C17.7522 5.80222 17.7332 5.81272 17.7118 5.81774C17.69 5.82275 17.6673 5.8206 17.6464 5.82931L16.2224 6.4213C16.0183 6.50605 15.9219 6.74024 16.0066 6.94414C16.0267 6.99268 16.0562 7.03677 16.0934 7.07389C16.1306 7.11101 16.1747 7.14044 16.2233 7.16049C16.2718 7.18053 16.3239 7.1908 16.3764 7.19071C16.429 7.19062 16.481 7.18017 16.5295 7.15995L17.4356 6.78327L18.1824 18.7206L12.4 20.8266V12.5217C12.4 12.4156 12.3578 12.3139 12.2828 12.2389C12.2078 12.1639 12.1061 12.1217 12 12.1217C11.8939 12.1217 11.7922 12.1639 11.7171 12.2389C11.6421 12.3139 11.6 12.4156 11.6 12.5217V20.8266L5.81758 18.7206L6.5643 6.78327L7.47049 7.15995C7.67477 7.24489 7.90877 7.14842 7.99333 6.94414C8.07808 6.74024 7.98161 6.50605 7.77752 6.4213L6.3535 5.82931C6.33269 5.82069 6.3101 5.8228 6.28844 5.81783C6.26693 5.81281 6.24775 5.80227 6.22497 5.80081C6.2186 5.80049 6.21316 5.80344 6.20683 5.80339C6.17777 5.80288 6.15068 5.80958 6.12204 5.81539C6.09522 5.82088 6.06921 5.82566 6.04464 5.83616C6.03494 5.84028 6.02407 5.8393 6.01464 5.84417L1.41466 8.24806C1.35554 8.279 1.30509 8.32422 1.26791 8.37962C1.23073 8.43502 1.20798 8.49884 1.20175 8.56527L0.00175357 21.3608C-0.0048721 21.4313 0.00735162 21.5023 0.0371744 21.5665C0.0669972 21.6308 0.113349 21.686 0.171488 21.7264C0.229618 21.7668 0.297434 21.7911 0.368015 21.7968C0.438597 21.8025 0.509418 21.7893 0.573254 21.7587L5.42149 19.4278L11.8631 21.7739C11.9515 21.8063 12.0485 21.8063 12.1369 21.7739L18.5786 19.4278L23.4268 21.7587C23.4906 21.7893 23.5614 21.8025 23.632 21.7968C23.7026 21.7912 23.7704 21.7669 23.8286 21.7265C23.8866 21.686 23.933 21.6308 23.9628 21.5665C23.9926 21.5023 24.0048 21.4313 23.9982 21.3608ZM5.01503 18.7354L0.86416 20.7311L1.97782 8.85645L5.75646 6.8817L5.01503 18.7354ZM18.9848 18.7354L18.2433 6.8817L22.022 8.85645L23.1356 20.7311L18.9848 18.7354Z" fill="#010101"/>
<path d="M8.47555 5.87382L11.6564 11.2047C11.6919 11.2642 11.7422 11.3134 11.8024 11.3476C11.8626 11.3818 11.9307 11.3998 11.9999 11.3998C12.0692 11.3998 12.1373 11.3818 12.1975 11.3476C12.2577 11.3134 12.308 11.2642 12.3435 11.2047L15.533 5.85859C15.6865 5.57345 15.7892 5.33185 15.856 5.09785C15.9517 4.76246 16.0001 4.41537 16 4.0666C16 3.54296 15.8935 3.03498 15.6834 2.55624C15.481 2.09551 15.1914 1.68184 14.823 1.32713C14.4559 0.973414 14.0281 0.69568 13.5521 0.501758C12.5677 0.100977 11.4322 0.100977 10.4478 0.501758C9.97184 0.69568 9.54411 0.973461 9.17713 1.32713C8.80855 1.68184 8.51891 2.09551 8.31659 2.55643C8.10645 3.03493 8 3.54296 8 4.0666C7.99983 4.41543 8.04828 4.76259 8.14395 5.09804C8.2107 5.33181 8.31345 5.5734 8.47555 5.87382ZM9.04902 2.87809C9.20919 2.51326 9.43906 2.18532 9.73203 1.90327C10.0258 1.62029 10.3682 1.39801 10.7494 1.24271C11.1455 1.08137 11.5662 0.999758 12 0.999758C12.4338 0.999758 12.8545 1.08141 13.2506 1.24271C13.6318 1.39796 13.9742 1.62024 14.2681 1.90327C14.5609 2.18532 14.7908 2.51321 14.951 2.8779C15.1158 3.25247 15.2006 3.65732 15.2 4.06655C15.2 4.34232 15.1619 4.61537 15.0869 4.8781C15.0364 5.05506 14.9543 5.24607 14.8373 5.46404L12 10.2191L9.17127 5.47927C9.04569 5.24607 8.96366 5.05505 8.91308 4.87829C8.8379 4.61427 8.79985 4.34107 8.80002 4.06655C8.79934 3.65738 8.88415 3.25258 9.04902 2.87809Z" fill="#010101"/>
<path d="M12 6.2012C13.1028 6.2012 14 5.30392 14 4.20119C14 3.09845 13.1028 2.20117 12 2.20117C10.8973 2.20117 10 3.09845 10 4.20119C10 5.30392 10.8973 6.2012 12 6.2012ZM12 3.00119C12.6618 3.00119 13.2 3.53945 13.2 4.20119C13.2 4.86292 12.6618 5.40119 12 5.40119C11.3383 5.40119 10.8 4.86292 10.8 4.20119C10.8 3.53945 11.3383 3.00119 12 3.00119Z" fill="#010101"/>
</svg>
