<svg viewBox="0 0 24 24" fill="none" xmlns="http://www.w3.org/2000/svg">
<path d="M10.875 16.8563V12.375C10.875 12.2755 10.8355 12.1802 10.7652 12.1098C10.6949 12.0395 10.5995 12 10.5 12C8.20971 12 7.88861 15.9297 7.87605 16.0969C7.87048 16.1711 7.88712 16.2453 7.92385 16.31C7.96058 16.3747 8.01574 16.4271 8.0823 16.4603L8.62502 16.7318V16.8564L8.33439 19.7631C8.31876 19.9195 8.33606 20.0774 8.3852 20.2267C8.43433 20.376 8.5142 20.5133 8.61967 20.6299C8.72513 20.7464 8.85384 20.8396 8.9975 20.9033C9.14117 20.9671 9.2966 21 9.45377 21H10.0463C10.2034 21 10.3589 20.9671 10.5025 20.9033C10.6462 20.8396 10.7749 20.7464 10.8804 20.6299C10.9858 20.5133 11.0657 20.376 11.1148 20.2267C11.164 20.0774 11.1813 19.9195 11.1656 19.7631L10.875 16.8563ZM8.65075 15.9061C8.71575 15.3803 8.83137 14.8619 8.99599 14.3583C9.28418 13.5103 9.66283 12.9943 10.125 12.8183V16.5H9.37502C9.37502 16.4304 9.35562 16.3621 9.31901 16.3029C9.2824 16.2436 9.23002 16.1958 9.16774 16.1646L8.65075 15.9061ZM10.3242 20.1266C10.2892 20.1657 10.2464 20.1968 10.1985 20.2181C10.1506 20.2394 10.0987 20.2502 10.0463 20.25H9.45377C9.40136 20.25 9.34953 20.239 9.30162 20.2178C9.25371 20.1965 9.21079 20.1654 9.17563 20.1266C9.14047 20.0877 9.11384 20.0419 9.09747 19.9921C9.08111 19.9423 9.07536 19.8897 9.0806 19.8375L9.3394 17.25H10.1606L10.4194 19.8375C10.425 19.8897 10.4193 19.9424 10.4029 19.9923C10.3865 20.0421 10.3597 20.0879 10.3243 20.1266H10.3242Z" fill="#010101"/>
<path d="M22.875 0.375H19.875C19.7755 0.375 19.6802 0.414509 19.6098 0.484835C19.5395 0.555161 19.5 0.650544 19.5 0.75V1.125H11.671C11.332 1.12524 10.9985 1.21029 10.7007 1.37241L7.02933 3.375H2.625C1.99416 3.375 1.5 4.03387 1.5 4.875C1.5 5.66006 1.93055 6.28594 2.50083 6.36614L0.810141 12.0896C0.808647 12.0947 0.807241 12.0998 0.805922 12.105C0.7688 12.2537 0.75002 12.4064 0.75 12.5596V23.25C0.75 23.3495 0.789509 23.4448 0.859835 23.5152C0.930161 23.5855 1.02554 23.625 1.125 23.625H18C18.0995 23.625 18.1948 23.5855 18.2652 23.5152C18.3355 23.4448 18.375 23.3495 18.375 23.25V12.591C18.375 12.4119 18.3494 12.2337 18.2988 12.0619L16.7363 6.74967C17.2452 6.74594 17.734 6.55115 18.106 6.20392C18.4779 5.85669 18.7058 5.38237 18.7444 4.875H19.5V5.625C19.5 5.72446 19.5395 5.81984 19.6098 5.89016C19.6802 5.96049 19.7755 6 19.875 6H22.875C22.9745 6 23.0698 5.96049 23.1402 5.89016C23.2105 5.81984 23.25 5.72446 23.25 5.625V0.75C23.25 0.650544 23.2105 0.555161 23.1402 0.484835C23.0698 0.414509 22.9745 0.375 22.875 0.375ZM2.25 4.875C2.25 4.41717 2.47209 4.125 2.625 4.125H13.3447L11.8447 5.625H2.625C2.47209 5.625 2.25 5.33283 2.25 4.875ZM13.9309 12.105C13.8938 12.2537 13.875 12.4064 13.875 12.5597V22.875H1.5V12.5596C1.50004 12.4701 1.51072 12.3809 1.53183 12.294L3.28022 6.375H11.1662C10.9705 6.70575 10.8962 7.0944 10.9561 7.47403C11.016 7.85367 11.2064 8.20054 11.4945 8.45493C11.7826 8.70932 12.1504 8.8553 12.5345 8.86774C12.9186 8.88018 13.2951 8.7583 13.599 8.52309L15.4031 7.1198L13.9351 12.0896C13.9336 12.0947 13.9322 12.0999 13.9309 12.105ZM16.125 21.9053L17.0947 22.875H15.1553L16.125 21.9053ZM17.5793 12.2737C17.6096 12.3767 17.625 12.4836 17.625 12.591V22.3447L16.5 21.2197V13.125C16.5 13.0255 16.4605 12.9302 16.3902 12.8598C16.3198 12.7895 16.2245 12.75 16.125 12.75C16.0255 12.75 15.9302 12.7895 15.8598 12.8598C15.7895 12.9302 15.75 13.0255 15.75 13.125V21.2197L14.625 22.3447V12.5596C14.625 12.4701 14.6357 12.3809 14.6568 12.294L16.124 7.32633L17.5793 12.2737ZM19.5 4.125H18.5987C18.44 4.12519 18.2878 4.18833 18.1756 4.30057C18.0633 4.41281 18.0002 4.565 18 4.72373C17.9996 5.0621 17.865 5.3865 17.6258 5.62577C17.3865 5.86503 17.0621 5.99962 16.7237 6H15.8019C15.6849 6.0002 15.5713 6.03919 15.4788 6.11086L13.1385 7.93125C12.9575 8.07217 12.7296 8.13877 12.5012 8.11746C12.2728 8.09616 12.0611 7.98855 11.9093 7.81659C11.7574 7.64462 11.6769 7.42123 11.6841 7.19195C11.6913 6.96266 11.7856 6.74475 11.9479 6.58261L14.5151 4.01531C14.5676 3.96288 14.6034 3.89605 14.6179 3.82329C14.6324 3.75052 14.625 3.67509 14.5966 3.60654C14.5682 3.53799 14.5201 3.4794 14.4584 3.43818C14.3967 3.39697 14.3242 3.37498 14.25 3.375H8.59566L11.0599 2.03081C11.2474 1.92871 11.4575 1.87514 11.671 1.875H19.5V4.125ZM22.5 5.25H20.25V1.125H22.5V5.25Z" fill="#010101"/>
<path d="M7.5 12.375C7.5 12.2755 7.46049 12.1802 7.39017 12.1098C7.31984 12.0395 7.22446 12 7.125 12C7.02554 12 6.93016 12.0395 6.85983 12.1098C6.78951 12.1802 6.75 12.2755 6.75 12.375V13.5H6V12.375C6 12.2755 5.96049 12.1802 5.89016 12.1098C5.81984 12.0395 5.72446 12 5.625 12C5.52554 12 5.43016 12.0395 5.35984 12.1098C5.28951 12.1802 5.25 12.2755 5.25 12.375V13.5H4.5V12.375C4.5 12.2755 4.46049 12.1802 4.39016 12.1098C4.31984 12.0395 4.22446 12 4.125 12C4.02554 12 3.93016 12.0395 3.85984 12.1098C3.78951 12.1802 3.75 12.2755 3.75 12.375V13.875H3.7507C3.75044 13.9332 3.76377 13.9906 3.78961 14.0427L4.49362 15.4508L4.18336 19.7948C4.17235 19.9489 4.1932 20.1037 4.24461 20.2493C4.29601 20.395 4.37688 20.5286 4.48215 20.6416C4.58743 20.7547 4.71487 20.8449 4.85652 20.9065C4.99818 20.9682 5.15101 21 5.3055 21H5.9445C6.09899 21 6.25182 20.9682 6.39348 20.9065C6.53513 20.8449 6.66257 20.7547 6.76785 20.6416C6.87312 20.5286 6.95399 20.395 7.00539 20.2493C7.0568 20.1037 7.07765 19.9489 7.06664 19.7948L6.75638 15.4508L7.46039 14.0427C7.48623 13.9906 7.49956 13.9332 7.4993 13.875H7.5V12.375ZM6.51825 14.25L6.14325 15H5.10675L4.73175 14.25H6.51825ZM6.219 20.1305C6.18405 20.1684 6.14159 20.1986 6.09433 20.2192C6.04707 20.2397 5.99604 20.2502 5.9445 20.25H5.3055C5.25401 20.25 5.20306 20.2394 5.15585 20.2188C5.10863 20.1983 5.06615 20.1682 5.03106 20.1306C4.99597 20.0929 4.96901 20.0484 4.95187 19.9998C4.93473 19.9513 4.92778 19.8997 4.93144 19.8483L5.22417 15.75H6.02573L6.31847 19.8483C6.32238 19.8997 6.31555 19.9513 6.29843 19.9999C6.2813 20.0485 6.25425 20.093 6.219 20.1305Z" fill="#010101"/>
</svg>
