<svg width="24" height="25" viewBox="0 0 24 25" fill="none" xmlns="http://www.w3.org/2000/svg">
<path d="M22.221 16.4468L21.997 15.3218H19.483L19.083 16.4388L17.068 16.4428C18.363 13.3298 19.325 11.0248 19.952 9.52583C20.116 9.13383 20.407 8.93383 20.836 8.93683C21.164 8.93983 21.699 8.93983 22.442 8.93783L24 16.4438L22.221 16.4468ZM20.049 13.7808H21.669L21.064 10.9608L20.049 13.7808ZM7.06 8.93583L9.086 8.93783L5.954 16.4478L3.903 16.4458C3.38725 14.4621 2.87792 12.4768 2.375 10.4898C2.275 10.0938 2.077 9.81683 1.696 9.68583C1.13333 9.49724 0.56794 9.31689 0 9.14483L0 8.93783H3.237C3.797 8.93783 4.124 9.20883 4.229 9.76483C4.335 10.3218 4.601 11.7408 5.029 14.0188L7.06 8.93583ZM11.87 8.93783L10.269 16.4468L8.34 16.4438L9.94 8.93583L11.87 8.93783ZM15.78 8.79883C16.357 8.79883 17.084 8.97883 17.502 9.14483L17.164 10.7008C16.786 10.5488 16.164 10.3438 15.641 10.3508C14.881 10.3638 14.411 10.6828 14.411 10.9888C14.411 11.4868 15.227 11.7378 16.067 12.2818C17.025 12.9018 17.152 13.4588 17.14 14.0648C17.127 15.3198 16.067 16.5588 13.831 16.5588C12.811 16.5438 12.443 16.4588 11.611 16.1628L11.963 14.5388C12.81 14.8928 13.169 15.0058 13.893 15.0058C14.556 15.0058 15.125 14.7378 15.13 14.2708C15.134 13.9388 14.93 13.7738 14.186 13.3638C13.442 12.9528 12.398 12.3848 12.412 11.2418C12.429 9.77983 13.814 8.79883 15.78 8.79883Z" fill="#FFFDFA"/>
</svg>
