<svg width="24" height="19" viewBox="0 0 24 19" fill="none" xmlns="http://www.w3.org/2000/svg">
<path d="M4.36372 18.914V17.6792C4.36372 17.2058 4.07553 16.8972 3.58156 16.8972C3.33462 16.8972 3.06706 16.9795 2.88181 17.247C2.73781 17.0206 2.53203 16.8972 2.22331 16.8972C2.01744 16.8972 1.81175 16.9588 1.64703 17.1852V16.9383H1.21484V18.914H1.64703V17.8232C1.64703 17.4734 1.83228 17.3087 2.12047 17.3087C2.40847 17.3087 2.55266 17.494 2.55266 17.8232V18.914H2.98484V17.8232C2.98484 17.4734 3.19053 17.3087 3.45809 17.3087C3.74628 17.3087 3.89028 17.494 3.89028 17.8232V18.914H4.36372ZM10.7641 16.9383H10.0645V16.3415H9.63228V16.9383H9.24125V17.3292H9.63219V18.2349C9.63219 18.6877 9.81744 18.9552 10.3114 18.9552C10.4967 18.9552 10.7023 18.8935 10.8465 18.8112L10.723 18.4407C10.5995 18.523 10.4555 18.5436 10.3526 18.5436C10.1468 18.5436 10.0645 18.4201 10.0645 18.2142V17.3292H10.7641V16.9383ZM14.4275 16.8971C14.1806 16.8971 14.0159 17.0206 13.913 17.1852V16.9383H13.4808V18.914H13.913V17.8027C13.913 17.4734 14.057 17.2882 14.3246 17.2882C14.4069 17.2882 14.5098 17.3088 14.5921 17.3293L14.7156 16.9178C14.6333 16.8972 14.5098 16.8972 14.4275 16.8972V16.8971ZM8.89137 17.1029C8.6855 16.9588 8.39741 16.8972 8.08869 16.8972C7.59481 16.8972 7.26556 17.1441 7.26556 17.5351C7.26556 17.8645 7.5125 18.0496 7.94469 18.1114L8.15047 18.132C8.37687 18.1731 8.50034 18.2349 8.50034 18.3378C8.50034 18.4818 8.33572 18.5847 8.04753 18.5847C7.75944 18.5847 7.53303 18.4818 7.38894 18.379L7.18316 18.7082C7.40956 18.8728 7.71828 18.9552 8.02691 18.9552C8.60319 18.9552 8.93253 18.6877 8.93253 18.3172C8.93253 17.9673 8.66497 17.7821 8.25331 17.7204L8.04753 17.6998C7.86228 17.6791 7.71828 17.6381 7.71828 17.5146C7.71828 17.3705 7.86228 17.2882 8.08869 17.2882C8.33572 17.2882 8.58266 17.391 8.70612 17.4528L8.89137 17.1029ZM20.3753 16.8972C20.1282 16.8972 19.9636 17.0206 19.8607 17.1852V16.9383H19.4285V18.914H19.8607V17.8027C19.8607 17.4734 20.0048 17.2882 20.2722 17.2882C20.3547 17.2882 20.4576 17.3088 20.5399 17.3293L20.6634 16.9178C20.5811 16.8972 20.4576 16.8972 20.3753 16.8972ZM14.8597 17.9262C14.8597 18.523 15.2712 18.9552 15.9093 18.9552C16.1974 18.9552 16.4032 18.8935 16.609 18.7288L16.4032 18.379C16.2386 18.5024 16.0739 18.5641 15.8887 18.5641C15.5388 18.5641 15.2919 18.3172 15.2919 17.9262C15.2919 17.5557 15.5388 17.3087 15.8887 17.2882C16.0739 17.2882 16.2386 17.3499 16.4032 17.4734L16.609 17.1236C16.4032 16.9588 16.1974 16.8972 15.9093 16.8972C15.2712 16.8972 14.8597 17.3293 14.8597 17.9262ZM18.8523 17.9262V16.9383H18.4201V17.1852C18.276 17.0001 18.0702 16.8972 17.8027 16.8972C17.247 16.8972 16.8148 17.3293 16.8148 17.9262C16.8148 18.523 17.247 18.9552 17.8027 18.9552C18.0908 18.9552 18.2967 18.8523 18.4201 18.6671V18.914H18.8523V17.9262ZM17.2676 17.9262C17.2676 17.5763 17.494 17.2882 17.8644 17.2882C18.2142 17.2882 18.4613 17.5557 18.4613 17.9262C18.4613 18.276 18.2142 18.5641 17.8644 18.5641C17.494 18.5435 17.2676 18.276 17.2676 17.9262ZM12.1019 16.8972C11.5257 16.8972 11.114 17.3087 11.114 17.9262C11.114 18.5436 11.5256 18.9552 12.1225 18.9552C12.4106 18.9552 12.6987 18.8728 12.9252 18.6877L12.7193 18.379C12.5547 18.5024 12.3489 18.5847 12.1431 18.5847C11.8755 18.5847 11.608 18.4613 11.5462 18.1113H13.0075V17.9468C13.0281 17.3087 12.6577 16.8972 12.1019 16.8972ZM12.1019 17.2676C12.3694 17.2676 12.5547 17.4323 12.5958 17.741H11.5668C11.608 17.4734 11.7932 17.2676 12.1019 17.2676ZM22.8243 17.9262V16.1562H22.3921V17.1852C22.248 17.0001 22.0422 16.8972 21.7747 16.8972C21.219 16.8972 20.7868 17.3293 20.7868 17.9262C20.7868 18.523 21.219 18.9552 21.7747 18.9552C22.0629 18.9552 22.2687 18.8523 22.3921 18.6671V18.914H22.8243V17.9262ZM21.2397 17.9262C21.2397 17.5763 21.466 17.2882 21.8365 17.2882C22.1863 17.2882 22.4333 17.5557 22.4333 17.9262C22.4333 18.276 22.1863 18.5641 21.8365 18.5641C21.466 18.5435 21.2397 18.276 21.2397 17.9262ZM6.79212 17.9262V16.9383H6.35994V17.1852C6.21584 17.0001 6.01006 16.8972 5.7425 16.8972C5.18684 16.8972 4.75466 17.3293 4.75466 17.9262C4.75466 18.523 5.18684 18.9552 5.7425 18.9552C6.03069 18.9552 6.23647 18.8523 6.35994 18.6671V18.914H6.79212V17.9262ZM5.18684 17.9262C5.18684 17.5763 5.41325 17.2882 5.78366 17.2882C6.13353 17.2882 6.38056 17.5557 6.38056 17.9262C6.38056 18.276 6.13353 18.5641 5.78366 18.5641C5.41325 18.5435 5.18684 18.276 5.18684 17.9262Z" fill="#FFFDFA"/>
<path d="M8.74609 1.93555H15.2289V13.5841H8.74609V1.93555Z" fill="#FF5F00"/>
<path d="M9.15834 7.75955C9.15834 5.39284 10.2697 3.29359 11.9778 1.93524C10.7225 0.947398 9.13781 0.350586 7.40906 0.350586C3.31341 0.350586 0 3.66399 0 7.75955C0 11.855 3.31341 15.1685 7.40897 15.1685C9.13772 15.1685 10.7224 14.5717 11.9778 13.5838C10.2697 12.2461 9.15834 10.1263 9.15834 7.75955Z" fill="#EB001B"/>
<path d="M23.9778 7.75955C23.9778 11.855 20.6644 15.1685 16.5688 15.1685C14.8401 15.1685 13.2554 14.5717 12 13.5838C13.7287 12.2255 14.8195 10.1263 14.8195 7.75955C14.8195 5.39284 13.7081 3.29359 12 1.93524C13.2553 0.947398 14.8401 0.350586 16.5688 0.350586C20.6644 0.350586 23.9778 3.68462 23.9778 7.75955Z" fill="#F79E1B"/>
</svg>
