<svg width="41" height="29" viewBox="0 0 41 29" fill="none" xmlns="http://www.w3.org/2000/svg">
<path d="M28.8828 12.4277C28.9267 12.4715 28.9707 12.5044 29.0256 12.5481C28.9816 12.5044 28.9377 12.4715 28.8828 12.4277Z" fill="#1E1E2D"/>
<path d="M27.082 11.125C27.1369 11.1578 27.1809 11.1907 27.2358 11.2235C27.1918 11.1907 27.1369 11.1578 27.082 11.125Z" fill="#1E1E2D"/>
<path d="M29.168 12.668C29.2119 12.7117 29.2558 12.7446 29.2997 12.7884C29.2668 12.7555 29.2119 12.7117 29.168 12.668Z" fill="#1E1E2D"/>
<path d="M27.707 11.5293C27.7619 11.5621 27.8059 11.595 27.8608 11.6278C27.8059 11.6059 27.751 11.5731 27.707 11.5293Z" fill="#1E1E2D"/>
<path d="M28.5977 12.1973C28.6416 12.2301 28.6965 12.2739 28.7404 12.3067C28.6965 12.2739 28.6526 12.2301 28.5977 12.1973Z" fill="#1E1E2D"/>
<path d="M27.3984 11.332C27.4533 11.3649 27.4973 11.3977 27.5522 11.4305C27.4973 11.3977 27.4424 11.3649 27.3984 11.332Z" fill="#1E1E2D"/>
<path d="M28.3125 11.9678C28.3564 12.0006 28.4113 12.0444 28.4552 12.0772C28.4003 12.0444 28.3564 12.0006 28.3125 11.9678Z" fill="#1E1E2D"/>
<path d="M29.4531 12.9199C29.497 12.9637 29.541 13.0075 29.5849 13.0403C29.541 12.9965 29.497 12.9637 29.4531 12.9199Z" fill="#1E1E2D"/>
<path d="M31.9023 15.7109C31.9353 15.7657 31.9682 15.8094 32.0012 15.8642C31.9682 15.8204 31.9353 15.7657 31.9023 15.7109Z" fill="#1E1E2D"/>
<path d="M31.6836 15.416C31.7165 15.4598 31.7605 15.5145 31.7934 15.5692C31.7605 15.5145 31.7275 15.4598 31.6836 15.416Z" fill="#1E1E2D"/>
<path d="M32.3203 16.3347C32.3533 16.3894 32.3862 16.4332 32.4191 16.4879C32.3862 16.4442 32.3533 16.3894 32.3203 16.3347Z" fill="#1E1E2D"/>
<path d="M31.4609 15.1094C31.4939 15.1532 31.5378 15.2079 31.5707 15.2517C31.5378 15.2079 31.4939 15.1641 31.4609 15.1094Z" fill="#1E1E2D"/>
<path d="M32.1094 16.0283C32.1423 16.083 32.1753 16.1268 32.2082 16.1816C32.1753 16.1268 32.1423 16.0721 32.1094 16.0283Z" fill="#1E1E2D"/>
<path d="M31.2344 14.8135C31.2673 14.8573 31.3112 14.912 31.3442 14.9558C31.3112 14.912 31.2783 14.8682 31.2344 14.8135Z" fill="#1E1E2D"/>
<path d="M30.5078 13.9707C30.5517 14.0145 30.5847 14.0583 30.6286 14.102C30.5847 14.0583 30.5408 14.0145 30.5078 13.9707Z" fill="#1E1E2D"/>
<path d="M30.75 14.2441C30.7939 14.2879 30.8269 14.3317 30.8708 14.3864C30.8378 14.3317 30.7939 14.2879 30.75 14.2441Z" fill="#1E1E2D"/>
<path d="M31 14.5293C31.0439 14.5731 31.0769 14.6278 31.1208 14.6716C31.0769 14.6278 31.0329 14.5731 31 14.5293Z" fill="#1E1E2D"/>
<path d="M21.6133 9.04492C21.6682 9.05587 21.7231 9.06681 21.778 9.07776C21.7341 9.06681 21.6682 9.05587 21.6133 9.04492Z" fill="#1E1E2D"/>
<path d="M23.0508 9.35156C23.1057 9.36251 23.1606 9.3844 23.2155 9.39534C23.1606 9.3844 23.1057 9.37345 23.0508 9.35156Z" fill="#1E1E2D"/>
<path d="M21.25 8.99023C21.3049 9.00118 21.3598 9.01212 21.4147 9.01212C21.3598 9.00118 21.3049 8.99023 21.25 8.99023Z" fill="#1E1E2D"/>
<path d="M22.3359 9.17676C22.3908 9.1877 22.4457 9.19865 22.5006 9.22054C22.4457 9.20959 22.3908 9.19865 22.3359 9.17676Z" fill="#1E1E2D"/>
<path d="M21.9766 9.11133C22.0315 9.12227 22.0864 9.13322 22.1413 9.14416C22.0974 9.13322 22.0315 9.12227 21.9766 9.11133Z" fill="#1E1E2D"/>
<path d="M20.1523 8.88086C20.2072 8.88086 20.2512 8.8918 20.3061 8.8918C20.2512 8.8918 20.1963 8.88086 20.1523 8.88086Z" fill="#1E1E2D"/>
<path d="M20.8906 8.94727C20.9455 8.95821 21.0004 8.95821 21.0553 8.96916C21.0004 8.95821 20.9455 8.94727 20.8906 8.94727Z" fill="#1E1E2D"/>
<path d="M20.5156 8.90234C20.5705 8.90234 20.6254 8.91329 20.6694 8.91329C20.6254 8.91329 20.5705 8.91329 20.5156 8.90234Z" fill="#1E1E2D"/>
<path d="M23.7578 9.57031C23.8127 9.5922 23.8676 9.60315 23.9225 9.62504C23.8676 9.60315 23.8127 9.58126 23.7578 9.57031Z" fill="#1E1E2D"/>
<path d="M25.7969 10.4141C25.8518 10.436 25.9067 10.4688 25.9506 10.4907C25.9067 10.4578 25.8518 10.436 25.7969 10.4141Z" fill="#1E1E2D"/>
<path d="M23.4062 9.46094C23.4612 9.48283 23.5161 9.49377 23.571 9.51566C23.527 9.49377 23.4612 9.47188 23.4062 9.46094Z" fill="#1E1E2D"/>
<path d="M26.4453 10.752C26.5002 10.7848 26.5441 10.8067 26.599 10.8395C26.5551 10.8067 26.5002 10.7848 26.4453 10.752Z" fill="#1E1E2D"/>
<path d="M24.1055 9.69141C24.1604 9.7133 24.2153 9.73519 24.2702 9.75708C24.2153 9.72424 24.1604 9.70235 24.1055 9.69141Z" fill="#1E1E2D"/>
<path d="M26.7734 10.9395C26.8283 10.9723 26.8723 11.0051 26.9272 11.027C26.8723 11.0051 26.8174 10.9723 26.7734 10.9395Z" fill="#1E1E2D"/>
<path d="M28.0039 11.748C28.0478 11.7809 28.1027 11.8247 28.1467 11.8575C28.1027 11.8137 28.0588 11.7809 28.0039 11.748Z" fill="#1E1E2D"/>
<path d="M34.6602 23.4375C34.6602 23.5032 34.6711 23.5579 34.6711 23.6236C34.6602 23.5579 34.6602 23.4922 34.6602 23.4375Z" fill="#1E1E2D"/>
<path d="M34.4727 21.916C34.4836 21.9817 34.4946 22.0364 34.5056 22.1021C34.4946 22.0364 34.4836 21.9707 34.4727 21.916Z" fill="#1E1E2D"/>
<path d="M34.1445 20.4395C34.1665 20.4942 34.1775 20.5598 34.1885 20.6146C34.1775 20.5598 34.1555 20.4942 34.1445 20.4395Z" fill="#1E1E2D"/>
<path d="M34.6719 23.8213C34.6719 23.887 34.6719 23.9417 34.6829 24.0074C34.6829 23.9417 34.6829 23.887 34.6719 23.8213Z" fill="#1E1E2D"/>
<path d="M34.625 23.0547C34.636 23.1204 34.636 23.1751 34.647 23.2408C34.636 23.1751 34.625 23.1094 34.625 23.0547Z" fill="#1E1E2D"/>
<path d="M34.5391 22.2891C34.55 22.3547 34.561 22.4095 34.561 22.4751C34.55 22.4204 34.55 22.3547 34.5391 22.2891Z" fill="#1E1E2D"/>
<path d="M33.8047 19.3672C33.8266 19.4219 33.8486 19.4876 33.8706 19.5423C33.8376 19.4766 33.8157 19.4219 33.8047 19.3672Z" fill="#1E1E2D"/>
<path d="M34.582 22.6719C34.593 22.7375 34.593 22.7923 34.604 22.8579C34.604 22.7923 34.593 22.7375 34.582 22.6719Z" fill="#1E1E2D"/>
<path d="M33.9258 19.7168C33.9477 19.7715 33.9697 19.8372 33.9807 19.8919C33.9587 19.8372 33.9477 19.7715 33.9258 19.7168Z" fill="#1E1E2D"/>
<path d="M33.6719 19.0059C33.6938 19.0606 33.7158 19.1153 33.7378 19.181C33.7158 19.1263 33.6938 19.0715 33.6719 19.0059Z" fill="#1E1E2D"/>
<path d="M34.0312 20.0781C34.0532 20.1329 34.0642 20.1985 34.0862 20.2532C34.0752 20.1985 34.0532 20.1329 34.0312 20.0781Z" fill="#1E1E2D"/>
<path d="M33.0547 17.6377C33.0876 17.6924 33.1096 17.7471 33.1316 17.8019C33.1096 17.7471 33.0766 17.6924 33.0547 17.6377Z" fill="#1E1E2D"/>
<path d="M34.2422 20.8008C34.2532 20.8555 34.2751 20.9212 34.2861 20.9759C34.2751 20.9212 34.2532 20.8665 34.2422 20.8008Z" fill="#1E1E2D"/>
<path d="M20.2631 6.75781C10.4683 6.75781 2.51827 14.6821 2.44141 24.478H4.4948C4.53873 19.2243 7.14116 14.5836 11.1162 11.7488C13.3892 10.118 16.1234 9.07818 19.0662 8.85928C19.4615 8.82644 19.8568 8.8155 20.2631 8.8155C28.9269 8.8155 35.9546 15.8204 36.0315 24.478H38.0849C38.019 14.6821 30.0689 6.75781 20.2631 6.75781Z" fill="#1E1E2D"/>
<path d="M34.4062 21.5449C34.4172 21.6106 34.4282 21.6653 34.4392 21.731C34.4282 21.6653 34.4172 21.5996 34.4062 21.5449Z" fill="#1E1E2D"/>
<path d="M34.3281 21.1719C34.3391 21.2375 34.3501 21.2923 34.372 21.3579C34.3501 21.2923 34.3391 21.2266 34.3281 21.1719Z" fill="#1E1E2D"/>
<path d="M32.7031 16.9805C32.7361 17.0352 32.758 17.0899 32.791 17.1446C32.758 17.0899 32.7251 17.0352 32.7031 16.9805Z" fill="#1E1E2D"/>
<path d="M25.6211 10.3262C25.676 10.359 25.7309 10.3809 25.7968 10.4137C25.7419 10.3809 25.687 10.3481 25.6211 10.3262Z" fill="#EBEBEB"/>
<path d="M24.9531 10.0195C25.008 10.0414 25.0739 10.0743 25.1288 10.0961C25.0739 10.0743 25.019 10.0414 24.9531 10.0195Z" fill="#EBEBEB"/>
<path d="M23.9219 9.625C23.9768 9.64689 24.0427 9.66878 24.0976 9.69067C24.0427 9.66878 23.9878 9.64689 23.9219 9.625Z" fill="#EBEBEB"/>
<path d="M34.3594 21.3477C34.3704 21.4133 34.3813 21.479 34.4033 21.5337C34.3923 21.479 34.3813 21.4133 34.3594 21.3477Z" fill="#EBEBEB"/>
<path d="M25.293 10.1729C25.3479 10.1947 25.4138 10.2276 25.4687 10.2495C25.4138 10.2166 25.3479 10.1947 25.293 10.1729Z" fill="#EBEBEB"/>
<path d="M24.6094 9.87695C24.6643 9.89884 24.7302 9.92073 24.7851 9.94262C24.7302 9.93168 24.6753 9.89884 24.6094 9.87695Z" fill="#EBEBEB"/>
<path d="M34.5078 22.1035C34.5188 22.1692 34.5298 22.2349 34.5408 22.3005C34.5298 22.2239 34.5188 22.1692 34.5078 22.1035Z" fill="#EBEBEB"/>
<path d="M34.6719 23.624C34.6719 23.6897 34.6829 23.7554 34.6829 23.821C34.6719 23.7554 34.6719 23.6897 34.6719 23.624Z" fill="#EBEBEB"/>
<path d="M20.2633 8.81543C19.857 8.81543 19.4617 8.82637 19.0664 8.85921C19.1762 8.85921 19.297 8.85921 19.4068 8.85921C19.5276 8.85921 19.6594 8.85921 19.7802 8.85921C19.8241 8.85921 19.868 8.85921 19.9119 8.85921C19.9888 8.85921 20.0766 8.87016 20.1535 8.87016C20.2084 8.87016 20.2523 8.8811 20.3072 8.8811C20.3841 8.8811 20.45 8.89205 20.5268 8.89205C20.5817 8.89205 20.6367 8.90299 20.6806 8.90299C20.7465 8.91394 20.8233 8.91394 20.8892 8.92488C20.9441 8.93583 20.999 8.93583 21.0539 8.94677C21.1198 8.95772 21.1857 8.95772 21.2626 8.96866C21.3175 8.97961 21.3724 8.99055 21.4273 8.99055C21.4931 9.0015 21.559 9.01244 21.6249 9.02339C21.6798 9.03433 21.7347 9.04528 21.7896 9.05622C21.8555 9.06717 21.9214 9.07811 21.9873 9.08906C22.0422 9.1 22.0971 9.11095 22.152 9.12189C22.2179 9.13284 22.2838 9.14378 22.3387 9.16567C22.3936 9.17662 22.4485 9.18756 22.5034 9.20945C22.5693 9.2204 22.6351 9.24229 22.69 9.25323C22.745 9.26418 22.7999 9.28607 22.8548 9.29702C22.9206 9.30796 22.9755 9.32985 23.0414 9.3408C23.0963 9.35174 23.1512 9.37363 23.2061 9.38458C23.272 9.40647 23.3269 9.41741 23.3928 9.4393C23.4477 9.46119 23.5026 9.47214 23.5575 9.49403C23.6234 9.51592 23.6783 9.52686 23.7442 9.54875C23.7991 9.57064 23.854 9.58159 23.9089 9.60348C23.9638 9.62537 24.0297 9.64726 24.0846 9.66915C24.1395 9.69104 24.1944 9.71293 24.2493 9.73482C24.3042 9.75671 24.3701 9.7786 24.425 9.80049C24.4799 9.82238 24.5348 9.84427 24.5897 9.86616C24.6446 9.88805 24.7105 9.90994 24.7654 9.93183C24.8203 9.95372 24.8752 9.97561 24.9301 9.9975C24.985 10.0194 25.0509 10.0522 25.1058 10.0741C25.1607 10.096 25.2156 10.1179 25.2705 10.1507C25.3254 10.1726 25.3913 10.2055 25.4462 10.2274C25.5011 10.2492 25.556 10.2821 25.6109 10.304C25.6658 10.3368 25.7207 10.3587 25.7866 10.3915C25.8415 10.4134 25.8964 10.4463 25.9403 10.4681C25.9952 10.501 26.0502 10.5229 26.1051 10.5557C26.16 10.5885 26.2149 10.6104 26.2588 10.6433C26.3137 10.6761 26.3686 10.7089 26.4235 10.7308C26.4784 10.7637 26.5223 10.7856 26.5772 10.8184C26.6321 10.8512 26.687 10.8841 26.7419 10.9169C26.7968 10.9497 26.8408 10.9826 26.8957 11.0045C26.9506 11.0373 27.0055 11.0701 27.0604 11.103C27.1153 11.1358 27.1592 11.1686 27.2141 11.2015C27.269 11.2343 27.3239 11.2671 27.3788 11.3C27.4337 11.3328 27.4776 11.3656 27.5326 11.3985C27.5875 11.4313 27.6424 11.4642 27.6863 11.5079C27.7412 11.5408 27.7851 11.5736 27.84 11.6064C27.8949 11.6393 27.9388 11.6831 27.9937 11.7159C28.0377 11.7487 28.0926 11.7925 28.1365 11.8253C28.1914 11.8582 28.2353 11.902 28.2902 11.9348C28.3341 11.9676 28.389 12.0114 28.433 12.0442C28.4879 12.088 28.5318 12.1209 28.5867 12.1646C28.6306 12.1975 28.6855 12.2413 28.7295 12.2741C28.7734 12.3179 28.8283 12.3507 28.8722 12.3945C28.9161 12.4383 28.96 12.4711 29.015 12.5149C29.0589 12.5587 29.1138 12.5915 29.1577 12.6353C29.2016 12.6791 29.2455 12.7119 29.2895 12.7557C29.3334 12.7995 29.3883 12.8432 29.4322 12.887C29.4761 12.9308 29.5201 12.9746 29.564 13.0074C29.6079 13.0512 29.6518 13.095 29.7067 13.1388C29.7507 13.1825 29.7946 13.2263 29.8385 13.2701C29.8824 13.3139 29.9263 13.3577 29.9703 13.4014C30.0142 13.4452 30.0581 13.489 30.102 13.5328C30.146 13.5766 30.1899 13.6203 30.2338 13.6641C30.2777 13.7079 30.3217 13.7517 30.3546 13.7955C30.3985 13.8392 30.4424 13.883 30.4864 13.9377C30.5303 13.9815 30.5632 14.0253 30.6072 14.0691C30.6511 14.1129 30.695 14.1676 30.7389 14.2114C30.7828 14.2552 30.8158 14.2989 30.8597 14.3537C30.9036 14.3974 30.9476 14.4522 30.9805 14.496C31.0244 14.5397 31.0574 14.5945 31.1013 14.6382C31.1452 14.682 31.1782 14.7367 31.2221 14.7915C31.255 14.8352 31.2989 14.89 31.3319 14.9338C31.3758 14.9885 31.4087 15.0323 31.4527 15.087C31.4856 15.1308 31.5295 15.1855 31.5625 15.2293C31.5954 15.284 31.6393 15.3278 31.6723 15.3825C31.7052 15.4263 31.7492 15.481 31.7821 15.5357C31.815 15.5905 31.859 15.6342 31.8919 15.689C31.9248 15.7437 31.9578 15.7875 31.9907 15.8422C32.0237 15.8969 32.0566 15.9517 32.1005 15.9954C32.1335 16.0502 32.1664 16.0939 32.1994 16.1487C32.2323 16.2034 32.2652 16.2581 32.2982 16.3128C32.3311 16.3676 32.3641 16.4113 32.397 16.4661C32.43 16.5208 32.4629 16.5755 32.4958 16.6303C32.5288 16.685 32.5617 16.7397 32.5837 16.7835C32.6166 16.8382 32.6496 16.8929 32.6825 16.9477C32.7155 17.0024 32.7374 17.0571 32.7704 17.1118C32.8033 17.1666 32.8362 17.2213 32.8582 17.276C32.8911 17.3307 32.9131 17.3855 32.9461 17.4402C32.979 17.4949 33.001 17.5496 33.0339 17.6153C33.0668 17.67 33.0888 17.7248 33.1108 17.7795C33.1437 17.8342 33.1657 17.8889 33.1986 17.9546C33.2206 18.0093 33.2535 18.0641 33.2755 18.1188C33.2974 18.1735 33.3304 18.2392 33.3523 18.2939C33.3743 18.3486 33.4072 18.4034 33.4292 18.4581C33.4512 18.5128 33.4841 18.5785 33.5061 18.6332C33.528 18.6879 33.55 18.7427 33.572 18.8083C33.5939 18.8631 33.6159 18.9287 33.6378 18.9835C33.6598 19.0382 33.6818 19.0929 33.7037 19.1586C33.7257 19.2133 33.7476 19.279 33.7696 19.3337C33.7916 19.3884 33.8135 19.4541 33.8355 19.5088C33.8575 19.5745 33.8794 19.6292 33.9014 19.6949C33.9233 19.7496 33.9453 19.8153 33.9563 19.87C33.9782 19.9357 34.0002 19.9904 34.0112 20.0561C34.0331 20.1108 34.0441 20.1765 34.0661 20.2312C34.088 20.2969 34.099 20.3516 34.121 20.4173C34.143 20.472 34.1539 20.5377 34.1649 20.5924C34.1869 20.6581 34.1979 20.7128 34.2088 20.7785C34.2198 20.8332 34.2418 20.8989 34.2528 20.9536C34.2637 21.0192 34.2857 21.074 34.2967 21.1396C34.3077 21.2053 34.3186 21.26 34.3406 21.3257C34.3516 21.3914 34.3626 21.4571 34.3845 21.5118C34.3955 21.5774 34.4065 21.6322 34.4175 21.6978C34.4284 21.7635 34.4394 21.8292 34.4504 21.8839C34.4614 21.9496 34.4724 22.0043 34.4834 22.07C34.4943 22.1356 34.5053 22.2013 34.5163 22.267C34.5273 22.3327 34.5383 22.3874 34.5383 22.4531C34.5492 22.5187 34.5492 22.5844 34.5602 22.6501C34.5712 22.7157 34.5712 22.7705 34.5822 22.8361C34.5932 22.9018 34.5932 22.9675 34.6041 23.0331C34.6151 23.0988 34.6151 23.1535 34.6261 23.2192C34.6261 23.2849 34.6371 23.3506 34.6371 23.4162C34.6371 23.4819 34.6481 23.5366 34.6481 23.6023C34.6481 23.668 34.659 23.7336 34.659 23.7993C34.659 23.865 34.659 23.9197 34.67 23.9854C34.67 24.1058 34.67 24.2152 34.67 24.3356C34.67 24.3794 34.67 24.4232 34.67 24.467H34.9116H36.0207C35.9658 15.8203 28.9271 8.81543 20.2633 8.81543Z" fill="#DE500C"/>
<path d="M21.0547 8.95703C21.1206 8.96798 21.1865 8.96798 21.2633 8.97892C21.1865 8.97892 21.1206 8.96798 21.0547 8.95703Z" fill="#EBEBEB"/>
<path d="M20.6797 8.9248C20.7456 8.93575 20.8224 8.93575 20.8883 8.94669C20.8115 8.93575 20.7456 8.9248 20.6797 8.9248Z" fill="#EBEBEB"/>
<path d="M20.2969 8.89258C20.3737 8.89258 20.4396 8.90352 20.5165 8.90352C20.4506 8.90352 20.3737 8.89258 20.2969 8.89258Z" fill="#EBEBEB"/>
<path d="M34.5625 22.4746C34.5735 22.5403 34.5735 22.606 34.5845 22.6716C34.5845 22.606 34.5735 22.5403 34.5625 22.4746Z" fill="#EBEBEB"/>
<path d="M19.9141 8.87109C19.9909 8.87109 20.0788 8.88204 20.1556 8.88204C20.0678 8.88204 19.9909 8.87109 19.9141 8.87109Z" fill="#EBEBEB"/>
<path d="M23.2188 9.40625C23.2846 9.42814 23.3395 9.43909 23.4054 9.46098C23.3505 9.43909 23.2846 9.4172 23.2188 9.40625Z" fill="#EBEBEB"/>
<path d="M21.7891 9.06641C21.8549 9.07735 21.9208 9.0883 21.9867 9.09924C21.9099 9.09924 21.8549 9.0883 21.7891 9.06641Z" fill="#EBEBEB"/>
<path d="M23.5781 9.51562C23.644 9.53752 23.6989 9.54846 23.7648 9.57035C23.6989 9.54846 23.633 9.52657 23.5781 9.51562Z" fill="#EBEBEB"/>
<path d="M22.1484 9.14453C22.2143 9.15548 22.2802 9.16642 22.3351 9.18831C22.2692 9.16642 22.2143 9.15548 22.1484 9.14453Z" fill="#EBEBEB"/>
<path d="M34.6367 23.2412C34.6367 23.3069 34.6477 23.3726 34.6477 23.4382C34.6477 23.3726 34.6477 23.3069 34.6367 23.2412Z" fill="#EBEBEB"/>
<path d="M31.793 15.5579C31.8259 15.6126 31.8698 15.6564 31.9028 15.7111C31.8698 15.6673 31.8369 15.6126 31.793 15.5579Z" fill="#EBEBEB"/>
<path d="M26.2812 10.666C26.3362 10.6989 26.3911 10.7317 26.446 10.7536C26.3911 10.7207 26.3362 10.6989 26.2812 10.666Z" fill="#EBEBEB"/>
<path d="M33.2969 18.1406C33.3188 18.1954 33.3518 18.261 33.3737 18.3157C33.3518 18.261 33.3188 18.2063 33.2969 18.1406Z" fill="#EBEBEB"/>
<path d="M29.8516 13.3027C29.8955 13.3465 29.9394 13.3903 29.9833 13.4341C29.9504 13.3903 29.9065 13.3465 29.8516 13.3027Z" fill="#EBEBEB"/>
<path d="M33.5938 18.8301C33.6157 18.8848 33.6377 18.9505 33.6596 19.0052C33.6377 18.9505 33.6157 18.8957 33.5938 18.8301Z" fill="#EBEBEB"/>
<path d="M33.4531 18.4902C33.4751 18.545 33.508 18.6106 33.53 18.6654C33.497 18.5997 33.4751 18.545 33.4531 18.4902Z" fill="#EBEBEB"/>
<path d="M32.2109 16.1816C32.2439 16.2364 32.2768 16.2911 32.3098 16.3458C32.2878 16.2801 32.2549 16.2254 32.2109 16.1816Z" fill="#EBEBEB"/>
<path d="M32.793 17.1445C32.8259 17.1993 32.8589 17.254 32.8808 17.3087C32.8479 17.254 32.8259 17.1993 32.793 17.1445Z" fill="#EBEBEB"/>
<path d="M32.4219 16.499C32.4548 16.5537 32.4878 16.6085 32.5207 16.6632C32.4878 16.5975 32.4548 16.5428 32.4219 16.499Z" fill="#EBEBEB"/>
<path d="M31.5703 15.2617C31.6033 15.3164 31.6472 15.3602 31.6801 15.4149C31.6472 15.3602 31.6142 15.3055 31.5703 15.2617Z" fill="#EBEBEB"/>
<path d="M33.1328 17.8008C33.1658 17.8555 33.1877 17.9102 33.2207 17.9759C33.1877 17.9212 33.1658 17.8665 33.1328 17.8008Z" fill="#EBEBEB"/>
<path d="M31.3438 14.9551C31.3877 15.0098 31.4206 15.0536 31.4645 15.1083C31.4316 15.0645 31.3877 15.0098 31.3438 14.9551Z" fill="#EBEBEB"/>
<path d="M34.1875 20.6143C34.2095 20.6799 34.2204 20.7347 34.2314 20.8003C34.2204 20.7456 34.2095 20.6799 34.1875 20.6143Z" fill="#EBEBEB"/>
<path d="M27.5547 11.4316C27.6096 11.4645 27.6645 11.4973 27.7084 11.5411C27.6535 11.4973 27.5986 11.4645 27.5547 11.4316Z" fill="#EBEBEB"/>
<path d="M27.8516 11.6396C27.9065 11.6725 27.9504 11.7163 28.0053 11.7491C27.9614 11.7163 27.9065 11.6725 27.8516 11.6396Z" fill="#EBEBEB"/>
<path d="M34.2852 20.9863C34.2961 21.052 34.3181 21.1067 34.3291 21.1724C34.3181 21.1067 34.2961 21.0411 34.2852 20.9863Z" fill="#EBEBEB"/>
<path d="M33.7383 19.1807C33.7602 19.2354 33.7822 19.3011 33.8042 19.3558C33.7822 19.3011 33.7602 19.2463 33.7383 19.1807Z" fill="#EBEBEB"/>
<path d="M29.3125 12.7891C29.3564 12.8328 29.4113 12.8766 29.4553 12.9204C29.4003 12.8766 29.3564 12.8328 29.3125 12.7891Z" fill="#EBEBEB"/>
<path d="M29.0234 12.5479C29.0674 12.5916 29.1223 12.6245 29.1662 12.6682C29.1223 12.6245 29.0783 12.5916 29.0234 12.5479Z" fill="#EBEBEB"/>
<path d="M33.8555 19.5312C33.8774 19.5969 33.8994 19.6516 33.9214 19.7173C33.8994 19.6626 33.8774 19.5969 33.8555 19.5312Z" fill="#EBEBEB"/>
<path d="M28.4531 12.0771C28.508 12.1209 28.552 12.1538 28.6069 12.1975C28.552 12.1538 28.497 12.1209 28.4531 12.0771Z" fill="#EBEBEB"/>
<path d="M28.7422 12.3066C28.7861 12.3504 28.841 12.3833 28.8849 12.427C28.841 12.3942 28.7971 12.3504 28.7422 12.3066Z" fill="#EBEBEB"/>
<path d="M28.1562 11.8584C28.2112 11.8912 28.2551 11.935 28.31 11.9678C28.2551 11.935 28.2002 11.8912 28.1562 11.8584Z" fill="#EBEBEB"/>
<path d="M20.2624 8.02776C21.6693 8.02776 22.8099 6.89089 22.8099 5.48849C22.8099 4.08609 21.6693 2.94922 20.2624 2.94922C18.8554 2.94922 17.7148 4.08609 17.7148 5.48849C17.7148 6.89089 18.8554 8.02776 20.2624 8.02776Z" fill="#1E1E2D"/>
<path d="M34.6829 24.008C34.6829 23.9423 34.6829 23.8876 34.6719 23.8219C34.6719 23.7563 34.6719 23.6906 34.6609 23.6249C34.6609 23.5593 34.6499 23.5045 34.6499 23.4389C34.6499 23.3732 34.6389 23.3075 34.6389 23.2418C34.6389 23.1762 34.628 23.1214 34.617 23.0558C34.606 22.9901 34.606 22.9244 34.595 22.8588C34.584 22.7931 34.584 22.7384 34.5731 22.6727C34.5621 22.607 34.5621 22.5414 34.5511 22.4757C34.5401 22.41 34.5291 22.3553 34.5291 22.2896C34.5182 22.2239 34.5072 22.1583 34.4962 22.0926C34.4852 22.0269 34.4742 21.9722 34.4633 21.9065C34.4523 21.8409 34.4413 21.7752 34.4303 21.7205C34.4193 21.6548 34.4083 21.6001 34.3974 21.5344C34.3864 21.4687 34.3754 21.4031 34.3534 21.3483C34.3425 21.2827 34.3315 21.2279 34.3095 21.1623C34.2985 21.0966 34.2766 21.0419 34.2656 20.9762C34.2546 20.9215 34.2327 20.8558 34.2217 20.8011C34.2107 20.7354 34.1887 20.6807 34.1778 20.615C34.1668 20.5603 34.1448 20.4946 34.1338 20.4399C34.1119 20.3742 34.1009 20.3195 34.0789 20.2538C34.057 20.1991 34.046 20.1334 34.024 20.0787C34.0021 20.013 33.9911 19.9583 33.9691 19.8926C33.9472 19.8379 33.9362 19.7722 33.9142 19.7175C33.8923 19.6518 33.8703 19.5971 33.8483 19.5314C33.8264 19.4767 33.8044 19.411 33.7824 19.3563C33.7605 19.3016 33.7385 19.2359 33.7166 19.1812C33.6946 19.1265 33.6726 19.0717 33.6507 19.0061C33.6287 18.9514 33.6068 18.8857 33.5848 18.831C33.5628 18.7762 33.5409 18.7215 33.5189 18.6558C33.4969 18.6011 33.475 18.5354 33.442 18.4807C33.4201 18.426 33.3981 18.3713 33.3652 18.3165C33.3432 18.2618 33.3103 18.1961 33.2883 18.1414C33.2663 18.0867 33.2334 18.032 33.2114 17.9772C33.1895 17.9225 33.1565 17.8678 33.1236 17.8021C33.1016 17.7474 33.0687 17.6927 33.0467 17.6379C33.0138 17.5832 32.9918 17.5285 32.9589 17.4628C32.9259 17.4081 32.904 17.3534 32.871 17.2986C32.8381 17.2439 32.8052 17.1892 32.7832 17.1345C32.7503 17.0797 32.7283 17.025 32.6954 16.9703C32.6624 16.9156 32.6295 16.8608 32.5965 16.8061C32.5636 16.7514 32.5306 16.6967 32.5087 16.6529C32.4757 16.5982 32.4428 16.5434 32.4099 16.4887C32.3769 16.434 32.344 16.3902 32.311 16.3355C32.2781 16.2807 32.2451 16.226 32.2122 16.1713C32.1793 16.1166 32.1463 16.0728 32.1134 16.0181C32.0804 15.9633 32.0475 15.9086 32.0036 15.8648C31.9706 15.8101 31.9377 15.7663 31.9047 15.7116C31.8718 15.6569 31.8279 15.6021 31.7949 15.5584C31.762 15.5036 31.729 15.4599 31.6851 15.4051C31.6522 15.3504 31.6083 15.3066 31.5753 15.2519C31.5424 15.2081 31.4985 15.1534 31.4655 15.1096C31.4216 15.0549 31.3886 15.0111 31.3447 14.9564C31.3118 14.9126 31.2679 14.8579 31.2349 14.8141C31.191 14.7594 31.1581 14.7156 31.1141 14.6609C31.0702 14.6171 31.0373 14.5624 30.9933 14.5186C30.9494 14.4748 30.9165 14.4201 30.8726 14.3763C30.8286 14.3325 30.7957 14.2887 30.7518 14.234C30.7078 14.1902 30.6639 14.1355 30.62 14.0917C30.5761 14.0479 30.5431 14.0042 30.4992 13.9604C30.4553 13.9166 30.4114 13.8619 30.3674 13.8181C30.3235 13.7743 30.2796 13.7305 30.2466 13.6867C30.2027 13.643 30.1588 13.5992 30.1149 13.5554C30.071 13.5116 30.027 13.4678 29.9831 13.4241C29.9392 13.3803 29.8953 13.3365 29.8513 13.2927C29.8074 13.2489 29.7635 13.2052 29.7196 13.1614C29.6757 13.1176 29.6317 13.0738 29.5768 13.03C29.5329 12.9863 29.489 12.9425 29.4451 12.9096C29.4011 12.8659 29.3462 12.8221 29.3023 12.7783C29.2584 12.7345 29.2145 12.7017 29.1705 12.6579C29.1266 12.6141 29.0717 12.5703 29.0278 12.5375C28.9839 12.4937 28.9399 12.4609 28.885 12.4171C28.8411 12.3733 28.7862 12.3405 28.7423 12.2967C28.6984 12.2639 28.6435 12.2201 28.5995 12.1873C28.5446 12.1435 28.5007 12.1106 28.4458 12.0669C28.4019 12.034 28.347 11.9903 28.3031 11.9574C28.2482 11.9246 28.2042 11.8808 28.1493 11.848C28.1054 11.8151 28.0505 11.7713 28.0066 11.7385C27.9517 11.7057 27.9078 11.6619 27.8528 11.6291C27.7979 11.5962 27.754 11.5634 27.6991 11.5306C27.6442 11.4977 27.6003 11.4649 27.5454 11.4211C27.4905 11.3883 27.4466 11.3554 27.3917 11.3226C27.3368 11.2898 27.2819 11.2569 27.2269 11.2241C27.172 11.1913 27.1281 11.1584 27.0732 11.1256C27.0183 11.0928 26.9634 11.0599 26.9085 11.0271C26.8536 10.9942 26.8097 10.9614 26.7548 10.9395C26.6999 10.9067 26.645 10.8738 26.5901 10.841C26.5352 10.8082 26.4912 10.7863 26.4363 10.7535C26.3814 10.7206 26.3265 10.6878 26.2716 10.6659C26.2167 10.6331 26.1618 10.6112 26.1179 10.5783C26.063 10.5455 26.0081 10.5236 25.9532 10.4908C25.8983 10.4689 25.8434 10.436 25.7995 10.4142C25.7445 10.3813 25.6896 10.3594 25.6238 10.3266C25.5689 10.3047 25.514 10.2719 25.459 10.25C25.4041 10.2281 25.3383 10.1953 25.2834 10.1734C25.2285 10.1515 25.1736 10.1186 25.1186 10.0967C25.0637 10.0749 24.9979 10.042 24.943 10.0201C24.8881 9.99824 24.8331 9.97635 24.7782 9.95446C24.7233 9.93257 24.6575 9.91068 24.6026 9.88879C24.5476 9.8669 24.4927 9.84501 24.4378 9.82312C24.3829 9.80123 24.3171 9.77934 24.2621 9.75745C24.2072 9.73556 24.1523 9.71367 24.0974 9.69178C24.0425 9.66989 23.9766 9.648 23.9217 9.6261C23.8668 9.60421 23.8119 9.58232 23.757 9.57138C23.6912 9.54949 23.6362 9.5276 23.5704 9.51665C23.5155 9.49476 23.4606 9.48382 23.4057 9.46193C23.3398 9.44004 23.2849 9.42909 23.219 9.4072C23.1641 9.39626 23.1092 9.37437 23.0543 9.36342C22.9884 9.34153 22.9335 9.33059 22.8676 9.31964C22.8127 9.3087 22.7578 9.28681 22.7029 9.27586C22.637 9.26492 22.5711 9.24302 22.5162 9.23208C22.4613 9.22113 22.4064 9.21019 22.3515 9.1883C22.2856 9.17735 22.2197 9.16641 22.1648 9.14452C22.1099 9.13357 22.055 9.12263 22.0001 9.11168C21.9342 9.10074 21.8683 9.08979 21.8025 9.07885C21.7476 9.0679 21.6927 9.05696 21.6378 9.04601C21.5719 9.03507 21.506 9.02412 21.4401 9.01318C21.3852 9.00223 21.3303 8.99129 21.2754 8.99129C21.2095 8.98034 21.1436 8.9694 21.0668 8.9694C21.0119 8.95845 20.9569 8.95845 20.902 8.94751C20.8362 8.93656 20.7593 8.93656 20.6934 8.92562C20.6385 8.92562 20.5836 8.91467 20.5397 8.91467C20.4628 8.90373 20.3969 8.90373 20.3201 8.90373C20.2652 8.90373 20.2212 8.89278 20.1663 8.89278C20.0895 8.89278 20.0016 8.88184 19.9248 8.88184C19.8808 8.88184 19.8369 8.88184 19.793 8.88184C19.6722 8.88184 19.5404 8.88184 19.4196 8.88184C19.3098 8.88184 19.1891 8.88184 19.0792 8.88184C16.1254 9.10074 13.4022 10.1405 11.1292 11.7713C7.15417 14.6171 4.56272 19.2578 4.50781 24.5005H5.00195H5.45216H12.1724C12.2602 20.6369 14.9944 17.4519 18.5961 16.7514L13.9622 24.5005H15.3348L20.0565 16.5982C20.0675 16.5982 20.0785 16.5982 20.0895 16.5982C20.8362 16.5982 21.5609 16.7076 22.2527 16.9046L17.7067 24.5005H19.0902L23.3837 17.3315C23.9767 17.6051 24.5367 17.9663 25.0528 18.3713L21.3852 24.5005H22.7688L25.9312 19.214C27.194 20.615 27.9846 22.4647 28.0285 24.5005H34.6829C34.6829 24.4568 34.6829 24.413 34.6829 24.3692C34.6829 24.2379 34.6829 24.1284 34.6829 24.008Z" fill="#F9854E"/>
<path d="M40.5658 25.9668H0.046875V27.9588H40.5658V25.9668Z" fill="#1E1E2D"/>
</svg>
