<svg width="31" height="19" viewBox="0 0 31 19" fill="none" xmlns="http://www.w3.org/2000/svg">
<path d="M21.7266 7.0791C21.7594 7.11141 21.7922 7.13564 21.8333 7.16794C21.8004 7.13564 21.7676 7.11141 21.7266 7.0791Z" fill="#FFFDFA"/>
<path d="M20.3711 6.10645C20.4121 6.13063 20.445 6.15481 20.486 6.17899C20.4532 6.15481 20.4121 6.13063 20.3711 6.10645Z" fill="#FFFDFA"/>
<path d="M21.9414 7.25879C21.9742 7.2911 22.0071 7.31532 22.0399 7.34763C22.0153 7.3234 21.9742 7.2911 21.9414 7.25879Z" fill="#FFFDFA"/>
<path d="M20.8438 6.4082C20.8848 6.43238 20.9176 6.45656 20.9587 6.48075C20.9176 6.46462 20.8766 6.44044 20.8438 6.4082Z" fill="#FFFDFA"/>
<path d="M21.5117 6.9082C21.5446 6.93243 21.5856 6.96474 21.6184 6.98897C21.5856 6.96474 21.5528 6.93243 21.5117 6.9082Z" fill="#FFFDFA"/>
<path d="M20.6094 6.26172C20.6504 6.2859 20.6833 6.31008 20.7243 6.33426C20.6833 6.31008 20.6422 6.2859 20.6094 6.26172Z" fill="#FFFDFA"/>
<path d="M21.2969 6.73633C21.3297 6.76056 21.3708 6.79286 21.4036 6.81709C21.3625 6.79286 21.3297 6.76056 21.2969 6.73633Z" fill="#FFFDFA"/>
<path d="M22.1562 7.44727C22.1891 7.47957 22.2219 7.51188 22.2548 7.53611C22.2219 7.5038 22.1891 7.47957 22.1562 7.44727Z" fill="#FFFDFA"/>
<path d="M24.0039 9.53125C24.0285 9.57171 24.0532 9.60409 24.0778 9.64455C24.0532 9.61218 24.0285 9.57171 24.0039 9.53125Z" fill="#FFFDFA"/>
<path d="M23.8359 9.31055C23.8606 9.34292 23.8934 9.38338 23.918 9.42385C23.8934 9.38338 23.8688 9.34292 23.8359 9.31055Z" fill="#FFFDFA"/>
<path d="M24.3164 9.99707C24.341 10.0375 24.3657 10.0699 24.3903 10.1104C24.3657 10.078 24.341 10.0375 24.3164 9.99707Z" fill="#FFFDFA"/>
<path d="M23.6719 9.08203C23.6965 9.1144 23.7293 9.15487 23.754 9.18724C23.7293 9.15487 23.6965 9.1225 23.6719 9.08203Z" fill="#FFFDFA"/>
<path d="M24.1602 9.76855C24.1848 9.80902 24.2094 9.84139 24.234 9.88185C24.2094 9.84139 24.1848 9.80093 24.1602 9.76855Z" fill="#FFFDFA"/>
<path d="M23.4961 8.86133C23.5207 8.8937 23.5536 8.93416 23.5782 8.96654C23.5536 8.93416 23.5289 8.90179 23.4961 8.86133Z" fill="#FFFDFA"/>
<path d="M22.9531 8.23145C22.986 8.26382 23.0106 8.29619 23.0434 8.32856C23.0106 8.29619 22.9778 8.26382 22.9531 8.23145Z" fill="#FFFDFA"/>
<path d="M23.1328 8.43555C23.1656 8.46792 23.1903 8.50029 23.2231 8.54075C23.1985 8.50029 23.1656 8.46792 23.1328 8.43555Z" fill="#FFFDFA"/>
<path d="M23.3242 8.64844C23.3571 8.68081 23.3817 8.72127 23.4145 8.75364C23.3817 8.72127 23.3488 8.68081 23.3242 8.64844Z" fill="#FFFDFA"/>
<path d="M16.25 4.55273C16.291 4.56092 16.3321 4.5691 16.3731 4.57728C16.3403 4.5691 16.291 4.56092 16.25 4.55273Z" fill="#FFFDFA"/>
<path d="M17.332 4.78223C17.3731 4.79041 17.4141 4.80677 17.4552 4.81496C17.4141 4.80677 17.3731 4.79859 17.332 4.78223Z" fill="#FFFDFA"/>
<path d="M15.9766 4.5127C16.0176 4.52088 16.0587 4.52906 16.0997 4.52906C16.0587 4.52088 16.0176 4.5127 15.9766 4.5127Z" fill="#FFFDFA"/>
<path d="M16.7969 4.65137C16.8379 4.65955 16.879 4.66773 16.92 4.6841C16.879 4.67592 16.8379 4.66773 16.7969 4.65137Z" fill="#FFFDFA"/>
<path d="M16.5234 4.60156C16.5645 4.60975 16.6055 4.61793 16.6466 4.62611C16.6137 4.61793 16.5645 4.60975 16.5234 4.60156Z" fill="#FFFDFA"/>
<path d="M15.1484 4.43066C15.1895 4.43066 15.2223 4.43885 15.2634 4.43885C15.2223 4.43885 15.1813 4.43066 15.1484 4.43066Z" fill="#FFFDFA"/>
<path d="M15.7031 4.47949C15.7442 4.48767 15.7852 4.48768 15.8263 4.49586C15.7852 4.48768 15.7442 4.47949 15.7031 4.47949Z" fill="#FFFDFA"/>
<path d="M15.4219 4.44727C15.4629 4.44727 15.504 4.45545 15.5368 4.45545C15.504 4.45545 15.4629 4.45545 15.4219 4.44727Z" fill="#FFFDFA"/>
<path d="M17.8633 4.94531C17.9043 4.96168 17.9454 4.96986 17.9864 4.98623C17.9454 4.96986 17.9043 4.9535 17.8633 4.94531Z" fill="#FFFDFA"/>
<path d="M19.4023 5.5752C19.4434 5.59156 19.4844 5.61611 19.5173 5.63247C19.4844 5.60793 19.4434 5.59156 19.4023 5.5752Z" fill="#FFFDFA"/>
<path d="M17.5977 4.86328C17.6387 4.87965 17.6797 4.88783 17.7208 4.90419C17.688 4.88783 17.6387 4.87146 17.5977 4.86328Z" fill="#FFFDFA"/>
<path d="M19.8906 5.82812C19.9317 5.85226 19.9645 5.86834 20.0056 5.89248C19.9727 5.86834 19.9317 5.85226 19.8906 5.82812Z" fill="#FFFDFA"/>
<path d="M18.1289 5.03516C18.17 5.05152 18.211 5.06789 18.252 5.08425C18.211 5.0597 18.17 5.04334 18.1289 5.03516Z" fill="#FFFDFA"/>
<path d="M20.1367 5.96777C20.1778 5.99191 20.2106 6.01604 20.2516 6.03212C20.2106 6.01604 20.1696 5.99191 20.1367 5.96777Z" fill="#FFFDFA"/>
<path d="M21.0625 6.57227C21.0953 6.5965 21.1364 6.6288 21.1692 6.65303C21.1364 6.62072 21.1035 6.5965 21.0625 6.57227Z" fill="#FFFDFA"/>
<path d="M26.082 15.3027C26.082 15.3517 26.0903 15.3925 26.0903 15.4414C26.082 15.3925 26.082 15.3435 26.082 15.3027Z" fill="#FFFDFA"/>
<path d="M25.9414 14.166C25.9497 14.215 25.958 14.2558 25.9662 14.3047C25.958 14.2558 25.9497 14.2068 25.9414 14.166Z" fill="#FFFDFA"/>
<path d="M25.6914 13.0625C25.708 13.1033 25.7162 13.1522 25.7245 13.193C25.7162 13.1522 25.6997 13.1033 25.6914 13.0625Z" fill="#FFFDFA"/>
<path d="M26.0859 15.5889C26.0859 15.6378 26.0859 15.6786 26.0942 15.7276C26.0942 15.6786 26.0942 15.6378 26.0859 15.5889Z" fill="#FFFDFA"/>
<path d="M26.0547 15.0166C26.063 15.0655 26.063 15.1063 26.0712 15.1553C26.063 15.1063 26.0547 15.0574 26.0547 15.0166Z" fill="#FFFDFA"/>
<path d="M25.9883 14.4443C25.9966 14.4933 26.0048 14.5341 26.0048 14.583C25.9966 14.5422 25.9966 14.4933 25.9883 14.4443Z" fill="#FFFDFA"/>
<path d="M25.4336 12.2617C25.4501 12.3025 25.4667 12.3515 25.4832 12.3922C25.4584 12.3433 25.4419 12.3025 25.4336 12.2617Z" fill="#FFFDFA"/>
<path d="M26.0234 14.7305C26.0317 14.7794 26.0317 14.8202 26.04 14.8692C26.04 14.8202 26.0317 14.7794 26.0234 14.7305Z" fill="#FFFDFA"/>
<path d="M25.5234 12.5234C25.54 12.5642 25.5565 12.6132 25.5648 12.654C25.5483 12.6132 25.54 12.5642 25.5234 12.5234Z" fill="#FFFDFA"/>
<path d="M25.3359 11.9922C25.3525 12.033 25.369 12.0738 25.3856 12.1227C25.369 12.0819 25.3525 12.0411 25.3359 11.9922Z" fill="#FFFDFA"/>
<path d="M25.6094 12.793C25.6259 12.8338 25.6342 12.8827 25.6508 12.9235C25.6425 12.8827 25.6259 12.8338 25.6094 12.793Z" fill="#FFFDFA"/>
<path d="M24.8711 10.9697C24.8957 11.0102 24.9121 11.0507 24.9286 11.0911C24.9121 11.0507 24.8875 11.0102 24.8711 10.9697Z" fill="#FFFDFA"/>
<path d="M25.7656 13.332C25.7739 13.3728 25.7905 13.4218 25.7987 13.4626C25.7905 13.4218 25.7739 13.381 25.7656 13.332Z" fill="#FFFDFA"/>
<path d="M15.2315 2.84473C7.85 2.84473 1.85871 8.76301 1.80078 16.0791H3.34826C3.38136 12.1554 5.3426 8.68944 8.33824 6.57226C10.0512 5.35427 12.1118 4.5777 14.3295 4.41422C14.6274 4.38969 14.9254 4.38152 15.2315 4.38152C21.7607 4.38152 27.0569 9.61315 27.1148 16.0791H28.6623C28.6127 8.76301 22.6214 2.84473 15.2315 2.84473Z" fill="#FFFDFA"/>
<path d="M25.8906 13.8887C25.8989 13.9376 25.9072 13.9784 25.9154 14.0274C25.9072 13.9784 25.8989 13.9295 25.8906 13.8887Z" fill="#FFFDFA"/>
<path d="M25.832 13.6104C25.8403 13.6593 25.8486 13.7001 25.8651 13.749C25.8486 13.7001 25.8403 13.6511 25.832 13.6104Z" fill="#FFFDFA"/>
<path d="M24.6094 10.4795C24.634 10.52 24.6504 10.5604 24.675 10.6009C24.6504 10.5604 24.6258 10.52 24.6094 10.4795Z" fill="#FFFDFA"/>
<path d="M19.2695 5.50977C19.3109 5.53409 19.3523 5.55031 19.4019 5.57463C19.3606 5.55031 19.3192 5.52598 19.2695 5.50977Z" fill="#EBEBEB"/>
<path d="M18.7656 5.28027C18.807 5.29677 18.8567 5.32152 18.898 5.33801C18.8567 5.32152 18.8153 5.29677 18.7656 5.28027Z" fill="#EBEBEB"/>
<path d="M17.9883 4.98633C18.0297 5.00282 18.0793 5.01932 18.1207 5.03582C18.0793 5.01932 18.0379 5.00282 17.9883 4.98633Z" fill="#EBEBEB"/>
<path d="M25.8555 13.7412C25.8637 13.7902 25.872 13.8391 25.8886 13.8799C25.8803 13.8391 25.872 13.7902 25.8555 13.7412Z" fill="#EBEBEB"/>
<path d="M19.0195 5.39551C19.0609 5.412 19.1106 5.43675 19.1519 5.45325C19.1106 5.4285 19.0609 5.412 19.0195 5.39551Z" fill="#EBEBEB"/>
<path d="M18.5078 5.1748C18.5492 5.1913 18.5988 5.2078 18.6402 5.2243C18.5988 5.21605 18.5575 5.1913 18.5078 5.1748Z" fill="#EBEBEB"/>
<path d="M25.9648 14.3047C25.9731 14.3536 25.9814 14.4026 25.9897 14.4515C25.9814 14.3944 25.9731 14.3536 25.9648 14.3047Z" fill="#EBEBEB"/>
<path d="M26.0859 15.4414C26.0859 15.4904 26.0942 15.5393 26.0942 15.5883C26.0859 15.5393 26.0859 15.4904 26.0859 15.4414Z" fill="#EBEBEB"/>
<path d="M15.2301 4.38086C14.9239 4.38086 14.626 4.38903 14.3281 4.41356C14.4109 4.41356 14.5019 4.41356 14.5847 4.41356C14.6757 4.41356 14.775 4.41356 14.866 4.41356C14.8991 4.41356 14.9322 4.41356 14.9653 4.41356C15.0232 4.41356 15.0894 4.42173 15.1474 4.42173C15.1888 4.42173 15.2219 4.42991 15.2632 4.42991C15.3212 4.42991 15.3708 4.43808 15.4287 4.43808C15.4701 4.43808 15.5115 4.44625 15.5446 4.44625C15.5942 4.45443 15.6522 4.45443 15.7018 4.4626C15.7432 4.47078 15.7846 4.47078 15.8259 4.47895C15.8756 4.48713 15.9253 4.48713 15.9832 4.4953C16.0246 4.50348 16.0659 4.51165 16.1073 4.51165C16.157 4.51982 16.2066 4.528 16.2563 4.53617C16.2976 4.54435 16.339 4.55252 16.3804 4.5607C16.43 4.56887 16.4797 4.57705 16.5293 4.58522C16.5707 4.59339 16.6121 4.60157 16.6535 4.60974C16.7031 4.61792 16.7528 4.62609 16.7942 4.64244C16.8355 4.65062 16.8769 4.65879 16.9183 4.67514C16.9679 4.68331 17.0176 4.69966 17.059 4.70784C17.1003 4.71601 17.1417 4.73236 17.1831 4.74053C17.2327 4.74871 17.2741 4.76506 17.3238 4.77323C17.3651 4.78141 17.4065 4.79775 17.4479 4.80593C17.4976 4.82228 17.5389 4.83045 17.5886 4.8468C17.63 4.86315 17.6713 4.87132 17.7127 4.88767C17.7624 4.90402 17.8037 4.9122 17.8534 4.92855C17.8948 4.94489 17.9361 4.95307 17.9775 4.96942C18.0189 4.98577 18.0685 5.00212 18.1099 5.01846C18.1513 5.03481 18.1927 5.05116 18.2341 5.06751C18.2754 5.08386 18.3251 5.10021 18.3665 5.11656C18.4078 5.13291 18.4492 5.14926 18.4906 5.1656C18.532 5.18195 18.5816 5.1983 18.623 5.21465C18.6644 5.231 18.7057 5.24735 18.7471 5.2637C18.7885 5.28005 18.8381 5.30457 18.8795 5.32092C18.9209 5.33727 18.9623 5.35362 19.0037 5.37814C19.045 5.39449 19.0947 5.41901 19.1361 5.43536C19.1774 5.45171 19.2188 5.47623 19.2602 5.49258C19.3016 5.5171 19.3429 5.53345 19.3926 5.55798C19.434 5.57433 19.4753 5.59885 19.5084 5.6152C19.5498 5.63972 19.5912 5.65607 19.6326 5.68059C19.6739 5.70512 19.7153 5.72146 19.7484 5.74599C19.7898 5.77051 19.8312 5.79503 19.8726 5.81138C19.9139 5.83591 19.947 5.85226 19.9884 5.87678C20.0298 5.9013 20.0712 5.92583 20.1125 5.95035C20.1539 5.97487 20.187 5.9994 20.2284 6.01574C20.2698 6.04027 20.3111 6.06479 20.3525 6.08931C20.3939 6.11384 20.427 6.13836 20.4684 6.16288C20.5098 6.18741 20.5511 6.21193 20.5925 6.23645C20.6339 6.26098 20.667 6.2855 20.7084 6.31002C20.7497 6.33455 20.7911 6.35907 20.8242 6.39177C20.8656 6.41629 20.8987 6.44081 20.9401 6.46534C20.9814 6.48986 21.0145 6.52256 21.0559 6.54708C21.089 6.5716 21.1304 6.6043 21.1635 6.62883C21.2049 6.65335 21.238 6.68605 21.2794 6.71057C21.3125 6.73509 21.3538 6.76779 21.3869 6.79231C21.4283 6.82501 21.4614 6.84953 21.5028 6.88223C21.5359 6.90676 21.5773 6.93945 21.6104 6.96398C21.6435 6.99667 21.6848 7.0212 21.7179 7.0539C21.751 7.08659 21.7841 7.11112 21.8255 7.14381C21.8586 7.17651 21.9 7.20104 21.9331 7.23373C21.9662 7.26643 21.9993 7.29095 22.0324 7.32365C22.0655 7.35635 22.1069 7.38905 22.14 7.42174C22.1731 7.45444 22.2062 7.48714 22.2393 7.51166C22.2724 7.54436 22.3055 7.57706 22.3469 7.60976C22.38 7.64245 22.4131 7.67515 22.4462 7.70785C22.4793 7.74055 22.5124 7.77325 22.5455 7.80594C22.5786 7.83864 22.6117 7.87134 22.6448 7.90404C22.6779 7.93673 22.711 7.96943 22.7441 8.00213C22.7772 8.03483 22.8103 8.06752 22.8351 8.10022C22.8682 8.13292 22.9013 8.16562 22.9344 8.20649C22.9675 8.23919 22.9923 8.27188 23.0254 8.30458C23.0585 8.33728 23.0916 8.37815 23.1247 8.41085C23.1578 8.44355 23.1827 8.47625 23.2158 8.51712C23.2489 8.54982 23.282 8.59069 23.3068 8.62338C23.3399 8.65608 23.3647 8.69695 23.3978 8.72965C23.4309 8.76235 23.4557 8.80322 23.4888 8.84409C23.5137 8.87679 23.5468 8.91766 23.5716 8.95036C23.6047 8.99123 23.6295 9.02393 23.6626 9.0648C23.6875 9.0975 23.7206 9.13837 23.7454 9.17107C23.7702 9.21194 23.8033 9.24464 23.8281 9.28551C23.853 9.31821 23.8861 9.35908 23.9109 9.39996C23.9357 9.44083 23.9688 9.47352 23.9936 9.5144C24.0185 9.55527 24.0433 9.58797 24.0681 9.62884C24.0929 9.66971 24.1178 9.71058 24.1509 9.74328C24.1757 9.78415 24.2005 9.81685 24.2253 9.85772C24.2502 9.89859 24.275 9.93947 24.2998 9.98034C24.3247 10.0212 24.3495 10.0539 24.3743 10.0948C24.3991 10.1357 24.424 10.1765 24.4488 10.2174C24.4736 10.2583 24.4984 10.2991 24.515 10.3318C24.5398 10.3727 24.5646 10.4136 24.5895 10.4545C24.6143 10.4953 24.6308 10.5362 24.6557 10.5771C24.6805 10.6179 24.7053 10.6588 24.7219 10.6997C24.7467 10.7406 24.7632 10.7814 24.7881 10.8223C24.8129 10.8632 24.8294 10.904 24.8543 10.9531C24.8791 10.994 24.8956 11.0348 24.9122 11.0757C24.937 11.1166 24.9536 11.1575 24.9784 11.2065C24.9949 11.2474 25.0198 11.2882 25.0363 11.3291C25.0529 11.37 25.0777 11.419 25.0943 11.4599C25.1108 11.5008 25.1356 11.5417 25.1522 11.5825C25.1687 11.6234 25.1936 11.6724 25.2101 11.7133C25.2267 11.7542 25.2432 11.7951 25.2598 11.8441C25.2763 11.885 25.2929 11.934 25.3094 11.9749C25.326 12.0158 25.3425 12.0566 25.3591 12.1057C25.3756 12.1466 25.3922 12.1956 25.4087 12.2365C25.4253 12.2774 25.4418 12.3264 25.4584 12.3673C25.4749 12.4163 25.4915 12.4572 25.508 12.5062C25.5246 12.5471 25.5411 12.5962 25.5494 12.637C25.5659 12.6861 25.5825 12.7269 25.5908 12.776C25.6073 12.8169 25.6156 12.8659 25.6321 12.9068C25.6487 12.9558 25.657 12.9967 25.6735 13.0457C25.6901 13.0866 25.6983 13.1357 25.7066 13.1765C25.7232 13.2256 25.7314 13.2665 25.7397 13.3155C25.748 13.3564 25.7645 13.4054 25.7728 13.4463C25.7811 13.4953 25.7976 13.5362 25.8059 13.5853C25.8142 13.6343 25.8225 13.6752 25.839 13.7242C25.8473 13.7733 25.8556 13.8223 25.8721 13.8632C25.8804 13.9122 25.8887 13.9531 25.897 14.0022C25.9052 14.0512 25.9135 14.1002 25.9218 14.1411C25.9301 14.1902 25.9383 14.231 25.9466 14.2801C25.9549 14.3291 25.9632 14.3782 25.9714 14.4272C25.9797 14.4763 25.988 14.5171 25.988 14.5662C25.9963 14.6152 25.9963 14.6643 26.0045 14.7133C26.0128 14.7624 26.0128 14.8032 26.0211 14.8523C26.0294 14.9013 26.0294 14.9504 26.0376 14.9994C26.0459 15.0485 26.0459 15.0894 26.0542 15.1384C26.0542 15.1874 26.0625 15.2365 26.0625 15.2855C26.0625 15.3346 26.0707 15.3755 26.0707 15.4245C26.0707 15.4736 26.079 15.5226 26.079 15.5716C26.079 15.6207 26.079 15.6616 26.0873 15.7106C26.0873 15.8005 26.0873 15.8823 26.0873 15.9722C26.0873 16.0049 26.0873 16.0376 26.0873 16.0703H26.2693H27.1051C27.0638 9.61249 21.7593 4.38086 15.2301 4.38086Z" fill="#DE500C"/>
<path d="M15.8281 4.48828C15.8778 4.49653 15.9274 4.49653 15.9854 4.50478C15.9274 4.50478 15.8778 4.49653 15.8281 4.48828Z" fill="#EBEBEB"/>
<path d="M15.5469 4.46289C15.5965 4.47114 15.6545 4.47114 15.7041 4.47939C15.6462 4.47114 15.5965 4.46289 15.5469 4.46289Z" fill="#EBEBEB"/>
<path d="M15.2578 4.43848C15.3157 4.43848 15.3654 4.44672 15.4233 4.44672C15.3737 4.44672 15.3157 4.43848 15.2578 4.43848Z" fill="#EBEBEB"/>
<path d="M26.0039 14.583C26.0122 14.632 26.0122 14.6809 26.0205 14.7299C26.0205 14.6809 26.0122 14.632 26.0039 14.583Z" fill="#EBEBEB"/>
<path d="M14.9688 4.42285C15.0267 4.42285 15.0929 4.4311 15.1508 4.4311C15.0846 4.4311 15.0267 4.42285 14.9688 4.42285Z" fill="#EBEBEB"/>
<path d="M17.457 4.82324C17.5067 4.83974 17.5481 4.84799 17.5977 4.86448C17.5563 4.84799 17.5067 4.83149 17.457 4.82324Z" fill="#EBEBEB"/>
<path d="M16.3789 4.56934C16.4286 4.57758 16.4782 4.58583 16.5279 4.59408C16.4699 4.59408 16.4286 4.58583 16.3789 4.56934Z" fill="#EBEBEB"/>
<path d="M17.7305 4.9043C17.7801 4.92079 17.8215 4.92904 17.8711 4.94554C17.8215 4.92904 17.7718 4.91255 17.7305 4.9043Z" fill="#EBEBEB"/>
<path d="M16.6523 4.62695C16.702 4.6352 16.7516 4.64345 16.793 4.65995C16.7434 4.64345 16.702 4.6352 16.6523 4.62695Z" fill="#EBEBEB"/>
<path d="M26.0625 15.1562C26.0625 15.2052 26.0708 15.2541 26.0708 15.3031C26.0708 15.2541 26.0708 15.2052 26.0625 15.1562Z" fill="#EBEBEB"/>
<path d="M23.9219 9.41699C23.9465 9.45746 23.9793 9.48983 24.004 9.53029C23.9793 9.49792 23.9547 9.45746 23.9219 9.41699Z" fill="#EBEBEB"/>
<path d="M19.7656 5.76367C19.8067 5.7878 19.8477 5.81193 19.8888 5.82802C19.8477 5.80389 19.8067 5.7878 19.7656 5.76367Z" fill="#EBEBEB"/>
<path d="M25.0547 11.3457C25.0712 11.3865 25.0961 11.4354 25.1126 11.4762C25.0961 11.4354 25.0712 11.3947 25.0547 11.3457Z" fill="#EBEBEB"/>
<path d="M22.4531 7.7334C22.486 7.76577 22.5188 7.79814 22.5516 7.83051C22.527 7.79814 22.4942 7.76577 22.4531 7.7334Z" fill="#EBEBEB"/>
<path d="M25.2773 11.8613C25.2939 11.9021 25.3104 11.9511 25.327 11.9919C25.3104 11.9511 25.2939 11.9103 25.2773 11.8613Z" fill="#EBEBEB"/>
<path d="M25.1719 11.6074C25.1884 11.6482 25.2133 11.6972 25.2298 11.7379C25.205 11.689 25.1884 11.6482 25.1719 11.6074Z" fill="#EBEBEB"/>
<path d="M24.2344 9.88281C24.259 9.92328 24.2836 9.96374 24.3083 10.0042C24.2918 9.95565 24.2672 9.91518 24.2344 9.88281Z" fill="#EBEBEB"/>
<path d="M24.6719 10.6016C24.6965 10.642 24.7211 10.6825 24.7375 10.723C24.7129 10.6825 24.6965 10.642 24.6719 10.6016Z" fill="#EBEBEB"/>
<path d="M24.3906 10.1201C24.4153 10.1606 24.4399 10.201 24.4645 10.2415C24.4399 10.193 24.4153 10.1525 24.3906 10.1201Z" fill="#EBEBEB"/>
<path d="M23.7539 9.19629C23.7785 9.23675 23.8114 9.26912 23.836 9.30959C23.8114 9.26912 23.7867 9.22866 23.7539 9.19629Z" fill="#EBEBEB"/>
<path d="M24.9297 11.0928C24.9545 11.1336 24.9711 11.1744 24.9959 11.2233C24.9711 11.1825 24.9545 11.1417 24.9297 11.0928Z" fill="#EBEBEB"/>
<path d="M23.5781 8.9668C23.611 9.00726 23.6356 9.03963 23.6684 9.0801C23.6438 9.04773 23.611 9.00726 23.5781 8.9668Z" fill="#EBEBEB"/>
<path d="M25.7227 13.1934C25.7392 13.2423 25.7475 13.2831 25.7558 13.332C25.7475 13.2913 25.7392 13.2423 25.7227 13.1934Z" fill="#EBEBEB"/>
<path d="M20.7266 6.33496C20.7676 6.35919 20.8087 6.38342 20.8415 6.41573C20.8004 6.38342 20.7594 6.35919 20.7266 6.33496Z" fill="#EBEBEB"/>
<path d="M20.9492 6.49023C20.9903 6.51446 21.0231 6.54677 21.0641 6.571C21.0313 6.54677 20.9903 6.51446 20.9492 6.49023Z" fill="#EBEBEB"/>
<path d="M25.7969 13.4707C25.8052 13.5197 25.8217 13.5604 25.83 13.6094C25.8217 13.5604 25.8052 13.5115 25.7969 13.4707Z" fill="#EBEBEB"/>
<path d="M25.3867 12.123C25.4033 12.1638 25.4198 12.2128 25.4364 12.2536C25.4198 12.2128 25.4033 12.172 25.3867 12.123Z" fill="#EBEBEB"/>
<path d="M22.0508 7.34863C22.0836 7.381 22.1247 7.41338 22.1575 7.44575C22.1165 7.41338 22.0836 7.381 22.0508 7.34863Z" fill="#EBEBEB"/>
<path d="M21.8359 7.16895C21.8688 7.20125 21.9098 7.22548 21.9427 7.25779C21.9098 7.22548 21.877 7.20125 21.8359 7.16895Z" fill="#EBEBEB"/>
<path d="M25.4766 12.3848C25.4931 12.4337 25.5097 12.4745 25.5262 12.5235C25.5097 12.4827 25.4931 12.4337 25.4766 12.3848Z" fill="#EBEBEB"/>
<path d="M21.4062 6.81738C21.4473 6.84969 21.4801 6.87392 21.5212 6.90623C21.4801 6.87392 21.4391 6.84969 21.4062 6.81738Z" fill="#EBEBEB"/>
<path d="M21.6211 6.98926C21.6539 7.02156 21.695 7.04579 21.7278 7.0781C21.695 7.05387 21.6621 7.02156 21.6211 6.98926Z" fill="#EBEBEB"/>
<path d="M21.1797 6.6543C21.2207 6.67853 21.2536 6.71083 21.2946 6.73506C21.2536 6.71083 21.2125 6.67853 21.1797 6.6543Z" fill="#EBEBEB"/>
<path d="M15.2363 3.79293C16.2966 3.79293 17.1561 2.94386 17.1561 1.89647C17.1561 0.849077 16.2966 0 15.2363 0C14.176 0 13.3164 0.849077 13.3164 1.89647C13.3164 2.94386 14.176 3.79293 15.2363 3.79293Z" fill="#FFFDFA"/>
<path d="M7 9H22.3159V16.1065H7V9Z" fill="#FFFDFA"/>
<path d="M26.1037 15.7287C26.1037 15.6796 26.1037 15.6388 26.0954 15.5897C26.0954 15.5407 26.0954 15.4916 26.0872 15.4426C26.0872 15.3935 26.0789 15.3527 26.0789 15.3036C26.0789 15.2546 26.0706 15.2055 26.0706 15.1565C26.0706 15.1074 26.0623 15.0666 26.0541 15.0175C26.0458 14.9685 26.0458 14.9194 26.0375 14.8704C26.0292 14.8213 26.0292 14.7805 26.021 14.7314C26.0127 14.6824 26.0127 14.6333 26.0044 14.5843C25.9961 14.5352 25.9879 14.4944 25.9879 14.4453C25.9796 14.3963 25.9713 14.3472 25.963 14.2982C25.9548 14.2491 25.9465 14.2083 25.9382 14.1592C25.9299 14.1102 25.9217 14.0611 25.9134 14.0202C25.9051 13.9712 25.8968 13.9303 25.8886 13.8813C25.8803 13.8322 25.872 13.7832 25.8555 13.7423C25.8472 13.6933 25.8389 13.6524 25.8224 13.6033C25.8141 13.5543 25.7975 13.5134 25.7893 13.4644C25.781 13.4235 25.7644 13.3745 25.7562 13.3336C25.7479 13.2845 25.7313 13.2437 25.7231 13.1946C25.7148 13.1538 25.6982 13.1047 25.69 13.0638C25.6734 13.0148 25.6651 12.9739 25.6486 12.9249C25.632 12.884 25.6238 12.8349 25.6072 12.7941C25.5907 12.745 25.5824 12.7042 25.5658 12.6551C25.5493 12.6142 25.541 12.5652 25.5245 12.5243C25.5079 12.4753 25.4914 12.4344 25.4748 12.3854C25.4583 12.3445 25.4417 12.2954 25.4252 12.2546C25.4086 12.2137 25.3921 12.1646 25.3755 12.1238C25.3589 12.0829 25.3424 12.042 25.3258 11.993C25.3093 11.9521 25.2927 11.9031 25.2762 11.8622C25.2596 11.8213 25.2431 11.7804 25.2265 11.7314C25.21 11.6905 25.1934 11.6415 25.1686 11.6006C25.1521 11.5597 25.1355 11.5189 25.1107 11.478C25.0941 11.4371 25.0693 11.3881 25.0528 11.3472C25.0362 11.3063 25.0114 11.2655 24.9948 11.2246C24.9783 11.1837 24.9535 11.1428 24.9286 11.0938C24.9121 11.0529 24.8873 11.0121 24.8707 10.9712C24.8459 10.9303 24.8293 10.8894 24.8045 10.8404C24.7797 10.7995 24.7631 10.7586 24.7383 10.7178C24.7135 10.6769 24.6887 10.636 24.6721 10.5952C24.6473 10.5543 24.6307 10.5134 24.6059 10.4725C24.5811 10.4317 24.5562 10.3908 24.5314 10.3499C24.5066 10.3091 24.4818 10.2682 24.4652 10.2355C24.4404 10.1946 24.4156 10.1537 24.3907 10.1129C24.3659 10.072 24.3411 10.0393 24.3163 9.99842C24.2914 9.95755 24.2666 9.91668 24.2418 9.87581C24.217 9.83494 24.1921 9.80224 24.1673 9.76136C24.1425 9.72049 24.1177 9.67962 24.0846 9.64692C24.0597 9.60605 24.0349 9.57335 24.0101 9.53248C23.9853 9.49161 23.9522 9.45074 23.9273 9.41804C23.9025 9.37717 23.8777 9.34447 23.8446 9.3036C23.8197 9.26273 23.7866 9.23003 23.7618 9.18916C23.737 9.15646 23.7039 9.11559 23.6791 9.08289C23.646 9.04202 23.6211 9.00932 23.588 8.96845C23.5632 8.93575 23.5301 8.89488 23.5053 8.86218C23.4722 8.82131 23.4474 8.78861 23.4143 8.74774C23.3812 8.71504 23.3563 8.67417 23.3232 8.64147C23.2901 8.60877 23.2653 8.5679 23.2322 8.5352C23.1991 8.5025 23.1743 8.46981 23.1412 8.42893C23.1081 8.39624 23.075 8.35536 23.0419 8.32267C23.0088 8.28997 22.9839 8.25727 22.9508 8.22457C22.9177 8.19188 22.8846 8.151 22.8515 8.11831C22.8184 8.08561 22.7853 8.05291 22.7605 8.02021C22.7274 7.98752 22.6943 7.95482 22.6612 7.92212C22.6281 7.88942 22.595 7.85672 22.5619 7.82403C22.5288 7.79133 22.4957 7.75863 22.4626 7.72593C22.4295 7.69324 22.3964 7.66054 22.3633 7.62784C22.3302 7.59514 22.2971 7.56245 22.2557 7.52975C22.2226 7.49705 22.1895 7.46435 22.1564 7.43983C22.1233 7.40713 22.0819 7.37443 22.0488 7.34174C22.0157 7.30904 21.9826 7.28451 21.9495 7.25182C21.9164 7.21912 21.8751 7.18642 21.842 7.1619C21.8089 7.1292 21.7758 7.10468 21.7344 7.07198C21.7013 7.03928 21.6599 7.01476 21.6268 6.98206C21.5937 6.95754 21.5523 6.92484 21.5192 6.90032C21.4778 6.86762 21.4447 6.8431 21.4034 6.8104C21.3703 6.78587 21.3289 6.75318 21.2958 6.72865C21.2544 6.70413 21.2213 6.67143 21.1799 6.64691C21.1468 6.62239 21.1055 6.58969 21.0724 6.56517C21.031 6.54064 20.9979 6.50794 20.9565 6.48342C20.9151 6.4589 20.882 6.43437 20.8407 6.40985C20.7993 6.38533 20.7662 6.3608 20.7248 6.32811C20.6834 6.30358 20.6503 6.27906 20.6089 6.25454C20.5676 6.23001 20.5262 6.20549 20.4848 6.18097C20.4434 6.15644 20.4103 6.13192 20.369 6.1074C20.3276 6.08287 20.2862 6.05835 20.2448 6.03383C20.2035 6.0093 20.1704 5.98478 20.129 5.96843C20.0876 5.94391 20.0462 5.91939 20.0049 5.89486C19.9635 5.87034 19.9304 5.85399 19.889 5.82947C19.8476 5.80494 19.8062 5.78042 19.7649 5.76407C19.7235 5.73955 19.6821 5.7232 19.649 5.69868C19.6076 5.67415 19.5663 5.6578 19.5249 5.63328C19.4835 5.61693 19.4421 5.59241 19.409 5.57606C19.3677 5.55154 19.3263 5.53519 19.2766 5.51066C19.2352 5.49432 19.1939 5.46979 19.1525 5.45344C19.1111 5.43709 19.0615 5.41257 19.0201 5.39622C18.9787 5.37987 18.9373 5.35535 18.896 5.339C18.8546 5.32265 18.8049 5.29813 18.7636 5.28178C18.7222 5.26543 18.6808 5.24908 18.6394 5.23273C18.5981 5.21639 18.5484 5.20004 18.507 5.18369C18.4656 5.16734 18.4243 5.15099 18.3829 5.13464C18.3415 5.11829 18.2919 5.10194 18.2505 5.08559C18.2091 5.06925 18.1677 5.0529 18.1264 5.03655C18.085 5.0202 18.0353 5.00385 17.994 4.9875C17.9526 4.97115 17.9112 4.9548 17.8698 4.94663C17.8202 4.93028 17.7788 4.91393 17.7292 4.90576C17.6878 4.88941 17.6464 4.88123 17.605 4.86489C17.5554 4.84854 17.514 4.84036 17.4643 4.82401C17.423 4.81584 17.3816 4.79949 17.3402 4.79132C17.2906 4.77497 17.2492 4.76679 17.1995 4.75862C17.1582 4.75044 17.1168 4.73409 17.0754 4.72592C17.0258 4.71775 16.9761 4.7014 16.9347 4.69322C16.8933 4.68505 16.852 4.67687 16.8106 4.66052C16.7609 4.65235 16.7113 4.64418 16.6699 4.62783C16.6285 4.61965 16.5872 4.61148 16.5458 4.6033C16.4961 4.59513 16.4465 4.58695 16.3968 4.57878C16.3555 4.57061 16.3141 4.56243 16.2727 4.55426C16.2231 4.54608 16.1734 4.53791 16.1237 4.52973C16.0824 4.52156 16.041 4.51338 15.9996 4.51338C15.95 4.50521 15.9003 4.49704 15.8424 4.49704C15.801 4.48886 15.7596 4.48886 15.7183 4.48069C15.6686 4.47251 15.6107 4.47251 15.561 4.46434C15.5197 4.46434 15.4783 4.45616 15.4452 4.45616C15.3872 4.44799 15.3376 4.44799 15.2797 4.44799C15.2383 4.44799 15.2052 4.43981 15.1638 4.43981C15.1059 4.43981 15.0397 4.43164 14.9818 4.43164C14.9487 4.43164 14.9156 4.43164 14.8825 4.43164C14.7914 4.43164 14.6921 4.43164 14.6011 4.43164C14.5183 4.43164 14.4273 4.43164 14.3446 4.43164C12.1185 4.59513 10.0662 5.3717 8.35327 6.58969C5.35762 8.71504 3.40466 12.181 3.36328 16.0965H3.73567H4.07495H9.13942C9.20562 13.211 11.2662 10.8322 13.9805 10.3091L10.4883 16.0965H11.5227L15.0811 10.1946C15.0893 10.1946 15.0976 10.1946 15.1059 10.1946C15.6686 10.1946 16.2148 10.2764 16.7361 10.4235L13.3102 16.0965H14.3528L17.5885 10.7423C18.0353 10.9467 18.4574 11.2164 18.8463 11.5189L16.0824 16.0965H17.1251L19.5083 12.1483C20.46 13.1946 21.0558 14.5761 21.0889 16.0965H26.1037C26.1037 16.0638 26.1037 16.0311 26.1037 15.9985C26.1037 15.9004 26.1037 15.8186 26.1037 15.7287Z" fill="#F9854E"/>
<path d="M30.5357 17.1904H0V18.6782H30.5357V17.1904Z" fill="#FFFDFA"/>
</svg>
