<svg width="24" height="25" viewBox="0 0 24 25" fill="none" xmlns="http://www.w3.org/2000/svg">
<path d="M12 2.71875C6.5 2.71875 2 7.20875 2 12.7388C2 17.7388 5.66 21.8887 10.44 22.6387V15.6388H7.9V12.7388H10.44V10.5288C10.44 8.01875 11.93 6.63875 14.22 6.63875C15.31 6.63875 16.45 6.82875 16.45 6.82875V9.29875H15.19C13.95 9.29875 13.56 10.0688 13.56 10.8588V12.7388H16.34L15.89 15.6388H13.56V22.6387C15.9164 22.2666 18.0622 21.0643 19.6099 19.2488C21.1576 17.4334 22.0054 15.1244 22 12.7388C22 7.20875 17.5 2.71875 12 2.71875Z" fill="#FFFDFA"/>
</svg>
