<svg width="24" height="24" viewBox="0 0 24 24" fill="none" xmlns="http://www.w3.org/2000/svg">
<path d="M16.0909 4.30811C14.3727 4.30811 12.8787 5.08292 12 6.38138C11.1213 5.08292 9.62727 4.30811 7.90909 4.30811C6.60758 4.30962 5.35982 4.82731 4.43951 5.74762C3.51921 6.66792 3.00152 7.91569 3 9.2172C3 11.6063 4.48909 14.0927 7.42636 16.6062C8.77231 17.7531 10.2262 18.7669 11.7676 19.6335C11.8391 19.6719 11.9189 19.6919 12 19.6919C12.0811 19.6919 12.1609 19.6719 12.2324 19.6335C13.7738 18.7669 15.2277 17.7531 16.5736 16.6062C19.5109 14.0927 21 11.6063 21 9.2172C20.9985 7.91569 20.4808 6.66792 19.5605 5.74762C18.6402 4.82731 17.3924 4.30962 16.0909 4.30811ZM12 18.6353C10.6574 17.8605 3.98182 13.7761 3.98182 9.2172C3.9829 8.17595 4.39701 7.17766 5.13329 6.44139C5.86956 5.70512 6.86785 5.29101 7.90909 5.28992C9.56836 5.28992 10.9617 6.17601 11.5459 7.60292C11.5829 7.69296 11.6458 7.76997 11.7267 7.82417C11.8075 7.87837 11.9027 7.9073 12 7.9073C12.0973 7.9073 12.1925 7.87837 12.2733 7.82417C12.3542 7.76997 12.4171 7.69296 12.4541 7.60292C13.0383 6.17601 14.4316 5.28992 16.0909 5.28992C17.1322 5.29101 18.1304 5.70512 18.8667 6.44139C19.603 7.17766 20.0171 8.17595 20.0182 9.2172C20.0182 13.7761 13.3426 17.8605 12 18.6353Z" fill="#010101"/>
</svg>
