<svg viewBox="0 0 24 24" fill="none" xmlns="http://www.w3.org/2000/svg">
<g clip-path="url(#clip0_3302_4665)">
<path d="M22.8554 14.0575H22.4963V10.8224C22.4963 10.3103 22.2413 9.85682 21.852 9.58129V9.1408C21.852 8.50185 21.3323 7.98205 20.6933 7.98205H20.4251L21.4512 6.47643C21.7951 5.97177 21.6643 5.28135 21.1597 4.93738L14.1973 0.192691C13.9528 0.0260506 13.6582 -0.0354494 13.3673 0.0197224C13.2243 0.0464174 13.088 0.101219 12.9663 0.180956C12.8445 0.260693 12.7398 0.363782 12.6582 0.484254L6.6488 9.30252H4.97653L5.37998 5.2183C5.38453 5.17227 5.41444 5.13238 5.45616 5.11668C5.97595 4.92069 6.42642 4.55469 6.72455 4.08613C6.74803 4.04924 6.79233 4.02814 6.83817 4.03279L9.46106 4.29191C9.50575 4.29632 9.55088 4.29189 9.59385 4.27887C9.63683 4.26584 9.67682 4.24448 9.71154 4.216C9.74627 4.18752 9.77504 4.15248 9.79622 4.11288C9.8174 4.07328 9.83057 4.0299 9.83499 3.98521C9.8394 3.94052 9.83497 3.89539 9.82194 3.85242C9.80892 3.80944 9.78755 3.76945 9.75908 3.73473C9.7306 3.7 9.69556 3.67123 9.65596 3.65005C9.61636 3.62887 9.57297 3.6157 9.52828 3.61129L6.90539 3.35216C6.60094 3.32235 6.31059 3.46264 6.14747 3.71896C5.92828 4.06349 5.59706 4.33255 5.21489 4.47664C4.92722 4.58511 4.72969 4.84349 4.69931 5.15104L4.28925 9.30247H3.85317L4.49123 2.84291C4.5142 2.61041 4.72172 2.4396 4.9545 2.46289L10.2548 2.98649C10.3451 2.9954 10.4352 2.9681 10.5053 2.91058C10.5754 2.85306 10.6199 2.77004 10.6288 2.67979C10.6377 2.58953 10.6104 2.49943 10.5529 2.4293C10.4953 2.35918 10.4123 2.31478 10.3221 2.30586L5.02172 1.78227C4.41403 1.72232 3.87061 2.16786 3.81056 2.77564L3.29625 7.98205H2.42039C1.78148 7.98205 1.26164 8.50185 1.26164 9.1408V9.44127C0.738938 9.68193 0.375 10.2103 0.375 10.8224V22.48C0.375 23.3181 1.05684 24 1.89502 24H20.9763C21.8144 24 22.4963 23.3181 22.4963 22.48V19.245H22.8554C23.2793 19.245 23.6242 18.9001 23.6242 18.4762V14.8263C23.6243 14.4024 23.2793 14.0575 22.8554 14.0575ZM20.6933 8.66605C20.9551 8.666 21.1681 8.879 21.1681 9.14085V9.31508C21.1045 9.30688 21.0404 9.3027 20.9763 9.30257H19.5253L19.959 8.66605H20.6933ZM13.2234 0.869379C13.2546 0.823301 13.2947 0.783871 13.3412 0.753369C13.3878 0.722867 13.4399 0.701899 13.4947 0.691676C13.5493 0.681166 13.6055 0.681601 13.66 0.692954C13.7145 0.704307 13.7662 0.726353 13.8121 0.757816L20.7745 5.5025C20.9675 5.63408 21.0176 5.89818 20.886 6.09121L18.6976 9.30243H18.1725L19.2454 7.72804C19.4194 7.47271 19.4337 7.14777 19.2827 6.87997C19.082 6.52419 19.0006 6.10527 19.0536 5.70032C19.0929 5.39905 18.9604 5.10496 18.7076 4.93274L15.0983 2.47311C14.8455 2.30085 14.5233 2.28505 14.2574 2.43191C13.8999 2.62925 13.4803 2.70674 13.0757 2.65011C12.7757 2.60802 12.4715 2.74349 12.3 2.99497L8.00166 9.30247H7.47647L13.2234 0.869379ZM13.374 6.67677C11.8847 6.67677 10.6622 7.838 10.5626 9.30247H8.82924L12.8651 3.38014H12.8652C12.8762 3.36376 12.8911 3.3503 12.9085 3.34094C12.926 3.33157 12.9454 3.32658 12.9652 3.32638C12.9704 3.32638 12.9756 3.32675 12.9808 3.32746C13.531 3.40443 14.1017 3.29914 14.5879 3.03069C14.6261 3.0095 14.6753 3.01255 14.7131 3.03833L18.3225 5.498C18.3602 5.52379 18.381 5.56841 18.3754 5.61172C18.3033 6.16246 18.414 6.73218 18.687 7.21602C18.7089 7.25488 18.7062 7.30466 18.6803 7.34286L17.3449 9.30243H16.1855C16.0858 7.838 14.8634 6.67677 13.374 6.67677ZM15.4997 9.30252H11.2484C11.3463 8.21554 12.262 7.36077 13.374 7.36077C14.4861 7.36072 15.4018 8.21554 15.4997 9.30252ZM1.94559 9.1408C1.94559 8.87896 2.15855 8.66596 2.42039 8.66596H3.2287L3.16584 9.30247H1.94559V9.1408ZM1.05895 10.8224C1.05895 10.3615 1.434 9.98643 1.89502 9.98643H20.9763C21.4373 9.98643 21.8123 10.3615 21.8123 10.8224V11.7714H1.05895V10.8224ZM21.8123 22.48C21.8123 22.941 21.4373 23.316 20.9763 23.316H1.89502C1.434 23.316 1.05895 22.941 1.05895 22.48V21.5311H2.90311C2.94802 21.5311 2.99248 21.5222 3.03397 21.5051C3.07546 21.4879 3.11315 21.4627 3.14491 21.4309C3.17666 21.3992 3.20185 21.3615 3.21903 21.32C3.23622 21.2785 3.24506 21.234 3.24506 21.1891C3.24506 21.1442 3.23622 21.0998 3.21903 21.0583C3.20185 21.0168 3.17666 20.9791 3.14491 20.9473C3.11315 20.9156 3.07546 20.8904 3.03397 20.8732C2.99248 20.856 2.94802 20.8472 2.90311 20.8472H1.05895V12.4553H21.8123V14.0575H18.5607C17.5362 14.0575 16.6488 14.6547 16.2276 15.5191C16.2262 15.522 16.2246 15.5248 16.2232 15.5278C16.2196 15.5351 16.2165 15.5428 16.213 15.5502C16.1629 15.6567 16.1193 15.767 16.0838 15.8808L16.0835 15.8818C16.0061 16.1309 15.9668 16.3903 15.967 16.6513C15.967 18.0815 17.1305 19.245 18.5607 19.245H21.8123V20.8472H5.09283C5.04792 20.8472 5.00346 20.856 4.96197 20.8732C4.92048 20.8904 4.88278 20.9156 4.85103 20.9473C4.81928 20.9791 4.79409 21.0168 4.7769 21.0583C4.75972 21.0998 4.75087 21.1442 4.75087 21.1891C4.75087 21.234 4.75972 21.2785 4.7769 21.32C4.79409 21.3615 4.81928 21.3992 4.85103 21.4309C4.88278 21.4627 4.92048 21.4879 4.96197 21.5051C5.00346 21.5222 5.04792 21.5311 5.09283 21.5311H21.8123V22.48ZM22.9403 18.4762C22.9403 18.523 22.9022 18.561 22.8554 18.561H18.5608C17.8368 18.561 17.2056 18.1561 16.8818 17.5608C16.8374 17.4792 16.799 17.3945 16.7671 17.3072C16.692 17.1026 16.651 16.8816 16.651 16.6513C16.6508 16.3648 16.7153 16.082 16.8396 15.824C16.8531 15.7962 16.8671 15.7687 16.8818 15.7417C17.2056 15.1464 17.8368 14.7415 18.5608 14.7415H22.8554C22.9022 14.7415 22.9403 14.7795 22.9403 14.8263V18.4762Z" fill="#010101"/>
<path d="M18.6414 15.2637C17.8763 15.2637 17.2539 15.8861 17.2539 16.6512C17.2539 17.4162 17.8763 18.0386 18.6414 18.0386C19.4065 18.0386 20.0289 17.4162 20.0289 16.6512C20.0289 15.8861 19.4065 15.2637 18.6414 15.2637ZM18.6414 17.3547C18.2535 17.3547 17.9379 17.0391 17.9379 16.6512C17.9379 16.2633 18.2535 15.9476 18.6414 15.9476C19.0293 15.9476 19.345 16.2632 19.345 16.6512C19.345 17.0391 19.0293 17.3547 18.6414 17.3547Z" fill="#010101"/>
</g>
<defs>
<clipPath id="clip0_3302_4665">
<rect width="24" height="24" fill="white"/>
</clipPath>
</defs>
</svg>
