<svg viewBox="0 0 24 24" fill="none" xmlns="http://www.w3.org/2000/svg">
<mask id="mask0_3302_1467" style="mask-type:luminance" maskUnits="userSpaceOnUse" x="0" y="0" width="24" height="24">
<path d="M23.6499 23.65V0.350073H0.35V23.65H23.6499Z" fill="white" stroke="white" stroke-width="0.7"/>
</mask>
<g mask="url(#mask0_3302_1467)">
<path d="M1.28906 17.0977V18.3281" stroke="#010101" stroke-width="0.7" stroke-miterlimit="10" stroke-linecap="round" stroke-linejoin="round"/>
<path d="M21.6796 9.38674V4.54691C21.6796 4.1586 21.3648 3.84378 20.9765 3.84378H1.99219C1.60387 3.84378 1.28906 4.1586 1.28906 4.54691V15.457" stroke="#010101" stroke-width="0.7" stroke-miterlimit="10" stroke-linecap="round" stroke-linejoin="round"/>
<path d="M21.6796 20.1562H1.28906C0.77128 20.1562 0.351562 19.7365 0.351562 19.2188V18.75C0.351562 18.6878 0.376256 18.6282 0.42021 18.5843C0.464163 18.5403 0.523777 18.5156 0.585937 18.5156H22.3827C22.4449 18.5156 22.5045 18.5403 22.5485 18.5843C22.5924 18.6282 22.6171 18.6878 22.6171 18.75V19.2188C22.6171 19.7365 22.1974 20.1562 21.6796 20.1562Z" stroke="#010101" stroke-width="0.7" stroke-miterlimit="10" stroke-linecap="round" stroke-linejoin="round"/>
<path d="M20.2734 15.7969V16.875C20.2734 16.9372 20.2487 16.9968 20.2047 17.0407C20.1608 17.0847 20.1012 17.1094 20.039 17.1094H2.92969C2.86753 17.1094 2.80791 17.0847 2.76396 17.0407C2.72001 16.9968 2.69531 16.9372 2.69531 16.875V5.48441C2.69531 5.42225 2.72001 5.36264 2.76396 5.31868C2.80791 5.27473 2.86753 5.25004 2.92969 5.25004H20.039C20.1012 5.25004 20.1608 5.27473 20.2047 5.31868C20.2487 5.36264 20.2734 5.42225 20.2734 5.48441V9.42195" stroke="#010101" stroke-width="0.7" stroke-miterlimit="10" stroke-linecap="round" stroke-linejoin="round"/>
<path d="M13.9453 18.5156C13.9453 18.7745 13.7354 18.9844 13.4765 18.9844H9.49219C9.2333 18.9844 9.02344 18.7745 9.02344 18.5156" stroke="#010101" stroke-width="0.7" stroke-miterlimit="10" stroke-linecap="round" stroke-linejoin="round"/>
<path d="M20.0624 6.65625H8.1425C8.04411 6.65625 7.94822 6.62529 7.86841 6.56777C7.78859 6.51024 7.7289 6.42906 7.6978 6.33572L7.44275 5.57053C7.41164 5.4772 7.35195 5.39601 7.27214 5.33849C7.19232 5.28096 7.09643 5.25 6.99805 5.25" stroke="#010101" stroke-width="0.7" stroke-miterlimit="10" stroke-linecap="round" stroke-linejoin="round"/>
<path d="M18.8438 8.0625H20.0625" stroke="#010101" stroke-width="0.7" stroke-miterlimit="10" stroke-linecap="round" stroke-linejoin="round"/>
<path d="M2.89453 8.0625H17.2031" stroke="#010101" stroke-width="0.7" stroke-miterlimit="10" stroke-linecap="round" stroke-linejoin="round"/>
<path d="M11.2362 6.65625C11.1379 6.65625 11.042 6.62529 10.9622 6.56777C10.8823 6.51024 10.8227 6.42906 10.7915 6.33572L10.5365 5.57053C10.5054 5.4772 10.4457 5.39601 10.3659 5.33849C10.2861 5.28096 10.1902 5.25 10.0918 5.25" stroke="#010101" stroke-width="0.7" stroke-miterlimit="10" stroke-linecap="round" stroke-linejoin="round"/>
<path d="M23.1797 15.7031H14.6016C14.3427 15.7031 14.1328 15.4933 14.1328 15.2344V9.93752C14.1328 9.67863 14.3427 9.46877 14.6016 9.46877H23.1797C23.4385 9.46877 23.6484 9.67863 23.6484 9.93752V15.2344C23.6484 15.4933 23.4385 15.7031 23.1797 15.7031Z" stroke="#010101" stroke-width="0.7" stroke-miterlimit="10" stroke-linecap="round" stroke-linejoin="round"/>
<path d="M16.9453 12.2812H15.7734C15.7113 12.2812 15.6517 12.2566 15.6077 12.2126C15.5638 12.1686 15.5391 12.109 15.5391 12.0469V11.1094C15.5391 11.0472 15.5638 10.9876 15.6077 10.9437C15.6517 10.8997 15.7113 10.875 15.7734 10.875H16.9453C17.0075 10.875 17.0671 10.8997 17.111 10.9437C17.155 10.9876 17.1797 11.0472 17.1797 11.1094V12.0469C17.1797 12.109 17.155 12.1686 17.111 12.2126C17.0671 12.2566 17.0075 12.2812 16.9453 12.2812Z" stroke="#010101" stroke-width="0.7" stroke-miterlimit="10" stroke-linecap="round" stroke-linejoin="round"/>
<path d="M20.8359 14.2969H22.2422" stroke="#010101" stroke-width="0.7" stroke-miterlimit="10" stroke-linecap="round" stroke-linejoin="round"/>
<path d="M15.5391 14.2969H19.4297" stroke="#010101" stroke-width="0.7" stroke-miterlimit="10" stroke-linecap="round" stroke-linejoin="round"/>
<path d="M22.2422 11.25V11.9062" stroke="#010101" stroke-width="0.7" stroke-miterlimit="10" stroke-linecap="round" stroke-linejoin="round"/>
<path d="M20.8359 11.25V11.9062" stroke="#010101" stroke-width="0.7" stroke-miterlimit="10" stroke-linecap="round" stroke-linejoin="round"/>
<path d="M19.4297 11.25V11.9062" stroke="#010101" stroke-width="0.7" stroke-miterlimit="10" stroke-linecap="round" stroke-linejoin="round"/>
<path d="M12.2578 14.6953H4.57031C4.31142 14.6953 4.10156 14.4855 4.10156 14.2266V13.7578C4.10156 13.4989 4.31142 13.2891 4.57031 13.2891H12.2578C12.5167 13.2891 12.7265 13.4989 12.7265 13.7578V14.2266C12.7265 14.4855 12.5167 14.6953 12.2578 14.6953Z" stroke="#010101" stroke-width="0.7" stroke-miterlimit="10" stroke-linecap="round" stroke-linejoin="round"/>
<path d="M12.2578 11.8828H4.57031C4.31142 11.8828 4.10156 11.673 4.10156 11.4141V10.9453C4.10156 10.6864 4.31142 10.4766 4.57031 10.4766H12.2578C12.5167 10.4766 12.7265 10.6864 12.7265 10.9453V11.4141C12.7265 11.673 12.5167 11.8828 12.2578 11.8828Z" stroke="#010101" stroke-width="0.7" stroke-miterlimit="10" stroke-linecap="round" stroke-linejoin="round"/>
</g>
</svg>
