<svg viewBox="0 0 24 24" fill="none" xmlns="http://www.w3.org/2000/svg">
<g clip-path="url(#clip0_3302_22238)">
<path d="M7.01938 10.6702C7.01938 10.3125 6.72835 10.0215 6.37059 10.0215H5.46381C5.10605 10.0215 4.81501 10.3125 4.81501 10.6702V11.4122C4.81501 11.77 5.10605 12.061 5.46381 12.061H6.37059C6.72835 12.061 7.01938 11.77 7.01938 11.4122V10.6702ZM6.31605 11.3577H5.51834V10.7248H6.31605V11.3577ZM3.98363 10.6702C3.98363 10.3125 3.69259 10.0215 3.33483 10.0215H2.4281C2.07033 10.0215 1.7793 10.3125 1.7793 10.6702V11.4122C1.7793 11.77 2.07033 12.061 2.4281 12.061H3.33483C3.69259 12.061 3.98363 11.77 3.98363 11.4122V10.6702ZM3.2803 11.3577H2.48263V10.7248H3.2803V11.3577ZM7.01938 13.3408C7.01938 12.9831 6.72835 12.692 6.37059 12.692H5.46381C5.10605 12.692 4.81501 12.9831 4.81501 13.3408V14.0828C4.81501 14.4405 5.10605 14.7315 5.46381 14.7315H6.37059C6.72835 14.7315 7.01938 14.4405 7.01938 14.0828V13.3408ZM6.31605 14.0283H5.51834V13.3954H6.31605V14.0283ZM3.98363 13.3408C3.98363 12.9831 3.69259 12.692 3.33483 12.692H2.4281C2.07033 12.692 1.7793 12.9831 1.7793 13.3408V14.0828C1.7793 14.4405 2.07033 14.7315 2.4281 14.7315H3.33483C3.69259 14.7315 3.98363 14.4405 3.98363 14.0828V13.3408ZM3.2803 14.0283H2.48263V13.3954H3.2803V14.0283ZM6.37063 15.3627H5.46385C5.10609 15.3627 4.81506 15.6537 4.81506 16.0115V16.7534C4.81506 17.1112 5.10609 17.4022 5.46385 17.4022H6.37063C6.72839 17.4022 7.01943 17.1112 7.01943 16.7534V16.0115C7.01938 15.6537 6.72835 15.3627 6.37063 15.3627ZM6.31605 16.6989H5.51834V16.0659H6.31605V16.6989ZM3.33483 15.3627H2.4281C2.07033 15.3627 1.7793 15.6537 1.7793 16.0115V16.7534C1.7793 17.1112 2.07033 17.4022 2.4281 17.4022H3.33483C3.69259 17.4022 3.98363 17.1112 3.98363 16.7534V16.0115C3.98363 15.6537 3.69259 15.3627 3.33483 15.3627ZM3.2803 16.6989H2.48263V16.0659H3.2803V16.6989ZM8.49961 17.4022H9.40634C9.7641 17.4022 10.0551 17.1111 10.0551 16.7534V16.0114C10.0551 15.6537 9.7641 15.3626 9.40634 15.3626H8.49961C8.14185 15.3626 7.85081 15.6537 7.85081 16.0114V16.7534C7.85081 17.1111 8.14185 17.4022 8.49961 17.4022ZM8.55414 16.066H9.35181V16.6989H8.55414V16.066Z" fill="#010101"/>
<path d="M23.5813 20.9376L23.0173 19.9515L23.3804 16.3529C23.4712 15.4554 23.3416 14.5493 23.0028 13.7132C22.664 12.8772 22.1262 12.1364 21.4362 11.5553L18.4783 9.06283L15.3925 3.66735C15.1969 3.3253 14.8797 3.07988 14.4996 2.97635C14.1193 2.87287 13.7215 2.92351 13.3795 3.11917L11.4622 4.21571V1.97289C11.4622 0.885023 10.5772 0 9.48937 0H2.34593C1.25807 0 0.373047 0.885023 0.373047 1.97289V16.9259C0.373047 17.9457 1.15084 18.7872 2.14436 18.8885V22.9439C2.14436 23.1074 2.22684 23.2573 2.36502 23.3447C2.43253 23.3877 2.50988 23.4129 2.58978 23.4177C2.66967 23.4226 2.7495 23.4071 2.82176 23.3727L3.59191 23.0081L4.58618 23.4389C4.6462 23.4649 4.71039 23.4779 4.77462 23.4779C4.8413 23.4779 4.90798 23.4639 4.96996 23.4359L5.92021 23.0068L6.90946 23.4379C6.97156 23.4649 7.03873 23.4784 7.10647 23.4774C7.17421 23.4763 7.24093 23.4608 7.30216 23.4318L8.19393 23.0093L9.02236 23.3811C9.09457 23.4136 9.1738 23.4275 9.25278 23.4215C9.33177 23.4155 9.40796 23.3897 9.47437 23.3465C9.54095 23.3036 9.59567 23.2446 9.63351 23.175C9.67136 23.1054 9.69111 23.0275 9.69095 22.9482V18.8885C10.6845 18.7872 11.4623 17.9457 11.4623 16.9259V15.7601L11.8958 16.5182C11.9423 16.5993 11.9962 16.6759 12.057 16.7469L11.9063 17.5008C11.8419 17.8228 11.9069 18.1506 12.089 18.4238C12.2712 18.697 12.5489 18.8829 12.8708 18.9473C12.952 18.9635 13.0335 18.9715 13.1143 18.9715C13.3545 18.9715 13.5895 18.9009 13.7938 18.7646C13.7974 18.7622 13.8008 18.7597 13.8043 18.7573C13.9786 19.0243 14.2556 19.2241 14.5922 19.2914C14.6711 19.3072 14.7514 19.3151 14.8319 19.3151C15.0341 19.3148 15.2331 19.2647 15.4113 19.1692C15.8551 20.4797 16.6426 21.6667 17.7025 22.583L17.9497 22.7968L18.5365 23.8228C18.5594 23.8629 18.59 23.8981 18.6265 23.9264C18.6631 23.9546 18.7048 23.9754 18.7493 23.9875C18.7939 23.9997 18.8404 24.0029 18.8862 23.9971C18.932 23.9912 18.9763 23.9764 19.0163 23.9535C19.0564 23.9306 19.0916 23.9 19.1199 23.8634C19.1481 23.8269 19.1689 23.7852 19.1811 23.7406C19.1932 23.6961 19.1964 23.6496 19.1906 23.6037C19.1848 23.5579 19.17 23.5137 19.147 23.4736L18.5304 22.3955C18.5107 22.361 18.4853 22.33 18.4552 22.304L18.1626 22.051C16.6943 20.7816 15.8003 18.9416 15.7099 17.0027L15.5874 14.3808C15.5795 14.2139 15.5321 14.0511 15.4493 13.9059L14.2475 11.8045C14.1591 11.65 14.1361 11.4702 14.183 11.2983C14.2298 11.1265 14.3407 10.9831 14.4953 10.8948C14.5712 10.851 14.6551 10.8228 14.742 10.8117C14.8289 10.8007 14.9171 10.807 15.0016 10.8302C15.0861 10.853 15.1654 10.8923 15.2346 10.946C15.3039 10.9996 15.3619 11.0664 15.4051 11.1425L16.0767 12.3167C16.1233 12.397 16.1998 12.4556 16.2895 12.4797C16.3791 12.5038 16.4747 12.4914 16.5553 12.4453C16.6359 12.3992 16.695 12.3231 16.7197 12.2336C16.7444 12.1441 16.7327 12.0485 16.6872 11.9676L16.0157 10.7934C15.834 10.4757 15.5395 10.2478 15.1864 10.1516C14.8333 10.0555 14.4638 10.1026 14.1462 10.2843C13.4904 10.6593 13.262 11.498 13.637 12.1538L14.8389 14.2551C14.8665 14.3036 14.8823 14.3579 14.8849 14.4137L14.9434 15.6646L13.5597 16.4559C13.4718 16.5065 13.3748 16.5392 13.2742 16.552C13.1736 16.5648 13.0714 16.5576 12.9737 16.5306C12.8757 16.5043 12.784 16.4587 12.7038 16.3967C12.6236 16.3346 12.5565 16.2572 12.5064 16.1691L9.74027 11.3325C9.69397 11.2516 9.6174 11.1923 9.52741 11.1678C9.43742 11.1433 9.34138 11.1555 9.26041 11.2018C9.17945 11.2481 9.1202 11.3247 9.09569 11.4147C9.07119 11.5047 9.08343 11.6007 9.12973 11.6817L9.77277 12.806C9.66511 12.732 9.53751 12.6924 9.40685 12.6925H8.50012C8.14235 12.6925 7.85132 12.9836 7.85132 13.3413V14.0833C7.85132 14.441 8.14235 14.732 8.50012 14.732H9.40685C9.76461 14.732 10.0556 14.441 10.0556 14.0833V13.3413C10.0556 13.3263 10.0544 13.3115 10.0534 13.2967L10.759 14.5304V16.9259C10.759 17.626 10.1895 18.1955 9.48946 18.1955H2.34593C1.64589 18.1955 1.07638 17.626 1.07638 16.9259V1.97289C1.07638 1.27284 1.64589 0.70333 2.34593 0.70333H9.48937C10.1894 0.70333 10.7589 1.27284 10.7589 1.97289V4.61797L10.0556 5.02023V3.22411C10.0556 2.91193 9.80156 2.65793 9.48937 2.65793H2.34593C2.0337 2.65793 1.77971 2.91193 1.77971 3.22416V4.72497C1.77971 4.81824 1.81676 4.90768 1.88271 4.97363C1.94866 5.03958 2.0381 5.07663 2.13137 5.07663C2.22464 5.07663 2.31409 5.03958 2.38004 4.97363C2.44599 4.90768 2.48304 4.81824 2.48304 4.72497V3.36126H9.35222V5.42244L7.76767 6.3287C7.12586 6.69575 6.86436 7.47527 7.12534 8.14451H2.48304V6.22362C2.48304 6.13036 2.44599 6.04091 2.38004 5.97496C2.31409 5.90901 2.22464 5.87196 2.13137 5.87196C2.0381 5.87196 1.94866 5.90901 1.88271 5.97496C1.81676 6.04091 1.77971 6.13036 1.77971 6.22362V8.28161C1.77971 8.59384 2.0337 8.84784 2.34593 8.84784H7.50894L8.38566 10.3808C8.43275 10.4602 8.50917 10.5179 8.59844 10.5414C8.6877 10.565 8.78265 10.5525 8.86279 10.5067C8.94293 10.4608 9.00184 10.3853 9.0268 10.2965C9.05175 10.2076 9.04076 10.1124 8.9962 10.0316L7.83003 7.99259C7.6187 7.62311 7.74741 7.15057 8.11689 6.93928L13.7288 3.72976C13.8166 3.67916 13.9137 3.6465 14.0143 3.63368C14.1149 3.62086 14.217 3.62813 14.3148 3.65506C14.4127 3.68144 14.5044 3.72697 14.5846 3.78903C14.6648 3.8511 14.7319 3.92845 14.782 4.01662L19.4583 12.1932C19.5089 12.2811 19.5416 12.3782 19.5544 12.4788C19.5672 12.5793 19.56 12.6815 19.5331 12.7793C19.5067 12.8772 19.4611 12.9689 19.3991 13.0491C19.337 13.1293 19.2597 13.1964 19.1715 13.2465L17.8506 14.0019L17.4311 13.2685C17.3848 13.1875 17.3083 13.1282 17.2183 13.1037C17.1283 13.0792 17.0322 13.0915 16.9513 13.1378C16.8703 13.1841 16.8111 13.2607 16.7866 13.3506C16.7621 13.4406 16.7743 13.5367 16.8206 13.6176L17.7693 15.2764C17.7922 15.3165 17.8228 15.3517 17.8593 15.38C17.8959 15.4082 17.9376 15.429 17.9822 15.4412C18.0267 15.4533 18.0732 15.4565 18.119 15.4507C18.1649 15.4448 18.2091 15.43 18.2492 15.4071C18.2892 15.3842 18.3244 15.3536 18.3527 15.317C18.381 15.2805 18.4017 15.2388 18.4139 15.1942C18.426 15.1497 18.4293 15.1032 18.4234 15.0573C18.4176 15.0115 18.4028 14.9673 18.3798 14.9272L18.1998 14.6124L19.5207 13.857C19.8627 13.6614 20.1082 13.3442 20.2117 12.9641C20.3152 12.5839 20.2645 12.1861 20.0689 11.844L19.4936 10.8383L20.983 12.0933C21.5855 12.6007 22.055 13.2475 22.3509 13.9775C22.6467 14.7075 22.7599 15.4987 22.6806 16.2824L22.3063 19.9931C22.2989 20.066 22.3145 20.1394 22.3509 20.203L22.9708 21.2869C22.9938 21.327 23.0244 21.3622 23.0609 21.3905C23.0974 21.4187 23.1391 21.4395 23.1837 21.4517C23.2283 21.4638 23.2748 21.467 23.3206 21.4612C23.3664 21.4554 23.4106 21.4405 23.4507 21.4176C23.5316 21.3713 23.5909 21.2947 23.6154 21.2046C23.6399 21.1146 23.6276 21.0186 23.5813 20.9376ZM15.0073 17.0356C15.0299 17.5138 15.0967 17.9889 15.2069 18.4548C15.0844 18.5789 14.9056 18.6368 14.7301 18.6018C14.4456 18.5449 14.2605 18.2673 14.3173 17.9828L14.5768 16.6844L14.9801 16.4538L15.0073 17.0356ZM13.1788 17.2618C13.3813 17.2618 13.5816 17.219 13.7693 17.1361L13.6276 17.8449C13.6143 17.9127 13.5876 17.9772 13.5491 18.0346C13.5107 18.0921 13.4612 18.1413 13.4036 18.1795C13.3463 18.218 13.2818 18.2447 13.214 18.2582C13.1462 18.2716 13.0764 18.2714 13.0087 18.2576C12.8709 18.2301 12.7521 18.1505 12.6741 18.0337C12.5962 17.9168 12.5684 17.7765 12.596 17.6387L12.6882 17.1776C12.7212 17.1891 12.7547 17.1999 12.7888 17.2093C12.9159 17.244 13.047 17.2617 13.1788 17.2618ZM9.35222 14.0287H8.55455V13.3958H9.35222V14.0287ZM8.98757 22.5946L8.38543 22.3243C8.32285 22.2963 8.25493 22.2821 8.18635 22.2828C8.11777 22.2835 8.05016 22.2991 7.98818 22.3285L7.0951 22.7515L6.10804 22.3214C6.04727 22.295 5.98164 22.2815 5.91536 22.282C5.84909 22.2824 5.78364 22.2967 5.72323 22.324L4.77275 22.7533L3.77641 22.3215C3.71443 22.2946 3.64742 22.2813 3.57986 22.2824C3.5123 22.2835 3.44576 22.2991 3.3847 22.328L2.84764 22.5823V18.8988H8.98757V22.5946Z" fill="#010101"/>
<path d="M13.8702 6.35931C13.8947 6.26932 13.8825 6.17328 13.8362 6.09232C13.7898 6.01136 13.7133 5.95211 13.6233 5.9276C12.9308 5.73906 12.2064 5.83139 11.5833 6.18769C10.9604 6.544 10.5134 7.12157 10.3249 7.81407C10.3004 7.90406 10.3126 8.0001 10.3589 8.08106C10.4052 8.16202 10.4818 8.22127 10.5718 8.24578C10.6027 8.25422 10.6338 8.25825 10.6644 8.25825C10.7415 8.25817 10.8165 8.23274 10.8778 8.18588C10.939 8.13902 10.9832 8.07333 11.0035 7.99891C11.1427 7.48768 11.4726 7.06128 11.9325 6.79828C12.3925 6.53523 12.9272 6.46706 13.4385 6.60627C13.5285 6.63073 13.6245 6.61846 13.7055 6.57215C13.7864 6.52584 13.8457 6.44928 13.8702 6.35931Z" fill="#010101"/>
<path d="M13.0685 7.96253C13.1585 7.98699 13.2545 7.97473 13.3355 7.92844C13.4164 7.88215 13.4757 7.80562 13.5002 7.71567C13.5124 7.67111 13.5156 7.62459 13.5098 7.57878C13.504 7.53297 13.4892 7.48875 13.4662 7.44866C13.4433 7.40857 13.4127 7.37338 13.3762 7.34512C13.3397 7.31685 13.2979 7.29605 13.2534 7.28392C12.9233 7.19403 12.5781 7.23782 12.2815 7.40737C11.985 7.57692 11.7722 7.85216 11.6823 8.1824C11.6578 8.27239 11.67 8.36843 11.7163 8.44939C11.7626 8.53035 11.8392 8.5896 11.9292 8.6141C11.9601 8.62254 11.9912 8.62657 12.0218 8.62657C12.0989 8.62649 12.1739 8.60106 12.2352 8.5542C12.2964 8.50735 12.3406 8.44165 12.3609 8.36723C12.3805 8.29406 12.4145 8.22551 12.4608 8.16555C12.5071 8.10559 12.5649 8.05541 12.6307 8.01791C12.6964 7.9802 12.7689 7.95589 12.844 7.94639C12.9192 7.93688 12.9955 7.94237 13.0685 7.96253ZM12.9312 9.25179C12.9541 9.29188 12.9847 9.32706 13.0212 9.35533C13.0577 9.3836 13.0995 9.40439 13.144 9.41653C13.1886 9.42866 13.2351 9.4319 13.2809 9.42605C13.3267 9.42021 13.3709 9.4054 13.411 9.38246C13.4511 9.35954 13.4863 9.32894 13.5145 9.29241C13.5428 9.25589 13.5636 9.21416 13.5757 9.1696C13.5879 9.12504 13.5911 9.07853 13.5853 9.03272C13.5794 8.98691 13.5646 8.94269 13.5417 8.90261L13.4249 8.69836C13.402 8.65827 13.3714 8.62309 13.3348 8.59483C13.2983 8.56656 13.2566 8.54577 13.212 8.53364C13.1675 8.5215 13.121 8.51826 13.0751 8.5241C13.0293 8.52995 12.9851 8.54475 12.945 8.56768C12.9049 8.59061 12.8698 8.62121 12.8415 8.65773C12.8132 8.69425 12.7924 8.73599 12.7803 8.78054C12.7682 8.8251 12.7649 8.87162 12.7708 8.91743C12.7766 8.96324 12.7914 9.00745 12.8144 9.04754L12.9312 9.25179Z" fill="#010101"/>
</g>
<defs>
<clipPath id="clip0_3302_22238">
<rect width="24" height="24" fill="white"/>
</clipPath>
</defs>
</svg>
