<svg width="24" height="24" viewBox="0 0 24 24" fill="none" xmlns="http://www.w3.org/2000/svg">
<path d="M19.81 5.5H17.9142V6.66667H19.6642V19.5H3.33088V6.66667H5.08088V5.5H3.18505C3.04868 5.50228 2.91411 5.5314 2.789 5.5857C2.6639 5.63999 2.55071 5.71841 2.45592 5.81645C2.36112 5.9145 2.28657 6.03026 2.23651 6.15713C2.18646 6.28399 2.16189 6.41947 2.16421 6.55583V19.6108C2.16189 19.7472 2.18646 19.8827 2.23651 20.0095C2.28657 20.1364 2.36112 20.2522 2.45592 20.3502C2.55071 20.4483 2.6639 20.5267 2.789 20.581C2.91411 20.6353 3.04868 20.6644 3.18505 20.6667H19.81C19.9464 20.6644 20.081 20.6353 20.2061 20.581C20.3312 20.5267 20.4444 20.4483 20.5392 20.3502C20.634 20.2522 20.7085 20.1364 20.7586 20.0095C20.8086 19.8827 20.8332 19.7472 20.8309 19.6108V6.55583C20.8332 6.41947 20.8086 6.28399 20.7586 6.15713C20.7085 6.03026 20.634 5.9145 20.5392 5.81645C20.4444 5.71841 20.3312 5.63999 20.2061 5.5857C20.081 5.5314 19.9464 5.50228 19.81 5.5Z" fill="#010101"/>
<path d="M5.66406 10.167H6.83073V11.3337H5.66406V10.167Z" fill="#010101"/>
<path d="M9.16406 10.167H10.3307V11.3337H9.16406V10.167Z" fill="#010101"/>
<path d="M12.6641 10.167H13.8307V11.3337H12.6641V10.167Z" fill="#010101"/>
<path d="M16.1641 10.167H17.3307V11.3337H16.1641V10.167Z" fill="#010101"/>
<path d="M5.66406 13.083H6.83073V14.2497H5.66406V13.083Z" fill="#010101"/>
<path d="M9.16406 13.083H10.3307V14.2497H9.16406V13.083Z" fill="#010101"/>
<path d="M12.6641 13.083H13.8307V14.2497H12.6641V13.083Z" fill="#010101"/>
<path d="M16.1641 13.083H17.3307V14.2497H16.1641V13.083Z" fill="#010101"/>
<path d="M5.66406 16H6.83073V17.1667H5.66406V16Z" fill="#010101"/>
<path d="M9.16406 16H10.3307V17.1667H9.16406V16Z" fill="#010101"/>
<path d="M12.6641 16H13.8307V17.1667H12.6641V16Z" fill="#010101"/>
<path d="M16.1641 16H17.3307V17.1667H16.1641V16Z" fill="#010101"/>
<path d="M6.83333 7.83366C6.98804 7.83366 7.13642 7.7722 7.24581 7.6628C7.35521 7.55341 7.41667 7.40504 7.41667 7.25033V3.75033C7.41667 3.59562 7.35521 3.44724 7.24581 3.33785C7.13642 3.22845 6.98804 3.16699 6.83333 3.16699C6.67862 3.16699 6.53025 3.22845 6.42085 3.33785C6.31146 3.44724 6.25 3.59562 6.25 3.75033V7.25033C6.25 7.40504 6.31146 7.55341 6.42085 7.6628C6.53025 7.7722 6.67862 7.83366 6.83333 7.83366Z" fill="#010101"/>
<path d="M16.1693 7.83366C16.324 7.83366 16.4724 7.7722 16.5818 7.6628C16.6911 7.55341 16.7526 7.40504 16.7526 7.25033V3.75033C16.7526 3.59562 16.6911 3.44724 16.5818 3.33785C16.4724 3.22845 16.324 3.16699 16.1693 3.16699C16.0146 3.16699 15.8662 3.22845 15.7568 3.33785C15.6474 3.44724 15.5859 3.59562 15.5859 3.75033V7.25033C15.5859 7.40504 15.6474 7.55341 15.7568 7.6628C15.8662 7.7722 16.0146 7.83366 16.1693 7.83366Z" fill="#010101"/>
<path d="M8.58594 5.5H14.4193V6.66667H8.58594V5.5Z" fill="#010101"/>
</svg>
