<svg width="24" height="24" viewBox="0 0 24 24" fill="none" xmlns="http://www.w3.org/2000/svg">
<path fill-rule="evenodd" clip-rule="evenodd" d="M12.5716 15.0413C12.4193 15.1935 12.2128 15.2791 11.9975 15.2791C11.7822 15.2791 11.5757 15.1935 11.4234 15.0413L6.82993 10.4478C6.75237 10.3729 6.69051 10.2833 6.64796 10.1843C6.6054 10.0852 6.583 9.97863 6.58206 9.87082C6.58113 9.763 6.60167 9.65608 6.6425 9.55628C6.68333 9.45649 6.74362 9.36583 6.81986 9.28959C6.8961 9.21335 6.98676 9.15305 7.08656 9.11222C7.18635 9.0714 7.29327 9.05085 7.40109 9.05179C7.50891 9.05273 7.61546 9.07513 7.71452 9.11768C7.81359 9.16024 7.90319 9.2221 7.9781 9.29965L11.9975 13.3191L16.0169 9.29965C16.1701 9.15174 16.3752 9.06989 16.5881 9.07174C16.801 9.07359 17.0046 9.15899 17.1552 9.30954C17.3058 9.4601 17.3912 9.66376 17.393 9.87666C17.3949 10.0896 17.313 10.2947 17.1651 10.4478L12.5716 15.0413Z" fill="#010101"/>
</svg>
